<svg width="111" height="111" viewBox="0 0 111 111" fill="none" xmlns="http://www.w3.org/2000/svg">
<g id="box">
<path id="Vector" d="M97.125 74V37C97.1233 35.3779 96.6951 33.7848 95.8834 32.3804C95.0716 30.976 93.9048 29.8098 92.5 28.9988L60.125 10.4988C58.7188 9.68693 57.1237 9.25952 55.5 9.25952C53.8763 9.25952 52.2812 9.68693 50.875 10.4988L18.5 28.9988C17.0952 29.8098 15.9284 30.976 15.1166 32.3804C14.3049 33.7848 13.8767 35.3779 13.875 37V74C13.8767 75.6221 14.3049 77.2153 15.1166 78.6197C15.9284 80.024 17.0952 81.1902 18.5 82.0013L50.875 100.501C52.2812 101.313 53.8763 101.741 55.5 101.741C57.1237 101.741 58.7188 101.313 60.125 100.501L92.5 82.0013C93.9048 81.1902 95.0716 80.024 95.8834 78.6197C96.6951 77.2153 97.1233 75.6221 97.125 74Z" stroke="#FF0000" stroke-width="2" stroke-linecap="round" stroke-linejoin="round"/>
<path id="Vector_2" d="M15.124 32.1899L55.5003 55.5462L95.8765 32.1899" stroke="#FF0000" stroke-width="2" stroke-linecap="round" stroke-linejoin="round"/>
<path id="Vector_3" d="M55.5 102.12V55.5" stroke="#FF0000" stroke-width="2" stroke-linecap="round" stroke-linejoin="round"/>
</g>
</svg>
