<svg width="51" height="51" viewBox="0 0 51 51" fill="none" xmlns="http://www.w3.org/2000/svg">
<g id="briefcase">
<path id="Vector" d="M42.5 14.875H8.5C6.15279 14.875 4.25 16.7778 4.25 19.125V40.375C4.25 42.7222 6.15279 44.625 8.5 44.625H42.5C44.8472 44.625 46.75 42.7222 46.75 40.375V19.125C46.75 16.7778 44.8472 14.875 42.5 14.875Z" stroke="#FF0000" stroke-width="2" stroke-linecap="round" stroke-linejoin="round"/>
<path id="Vector_2" d="M34 44.625V10.625C34 9.49783 33.5522 8.41683 32.7552 7.6198C31.9582 6.82277 30.8772 6.375 29.75 6.375H21.25C20.1228 6.375 19.0418 6.82277 18.2448 7.6198C17.4478 8.41683 17 9.49783 17 10.625V44.625" stroke="#FF0000" stroke-width="2" stroke-linecap="round" stroke-linejoin="round"/>
</g>
</svg>
