<svg width="155" height="137" viewBox="0 0 155 137" fill="none" xmlns="http://www.w3.org/2000/svg">
<g id="Capa 38">
<path id="Vector" d="M20.1411 111.899C20.5221 106.993 22.2089 102.431 23.9656 97.9178C26.0506 92.5639 28.315 87.2735 31.8319 82.6503C32.4209 81.8729 33.1123 81.1734 33.7618 80.4399C35.7423 78.2106 39.3028 79.4342 40.6256 81.1976C42.6219 83.8514 44.475 86.6138 46.3215 89.3751C46.8166 90.1142 47.2033 90.2558 48.0096 89.8464C55.7864 85.9045 63.2323 81.4201 70.1058 76.0483C77.0958 70.5873 83.4798 64.5248 87.7535 56.5829C92.1926 48.336 92.7039 39.9438 88.5018 31.4632C87.6138 29.6732 86.416 28.0355 85.3061 26.358C84.6362 25.3428 84.3159 24.3444 84.9746 23.226C85.6344 22.101 86.6315 21.6654 87.9186 21.7316C88.4129 21.7554 88.9273 21.6368 89.4158 21.5309C94.6074 20.4033 99.7785 19.174 104.991 18.1481C110.164 17.1327 115.381 16.3245 120.571 15.3899C120.879 15.3322 121.255 14.9807 121.376 14.6786C122.324 12.2759 124.762 11.6979 126.451 13.664C130.373 18.2246 133.298 23.3496 134.588 29.2864C136.627 38.6952 134.371 47.3728 129.905 55.6153C125.293 64.1319 118.915 71.2087 111.762 77.6596C105.133 83.6412 97.939 88.8415 90.2507 93.3368C79.7276 99.4868 68.7439 104.565 56.7151 107.057C56.4063 107.121 56.103 107.234 55.4469 107.431C56.7049 109.753 57.9422 111.933 59.0685 114.169C59.6838 115.392 60.2619 116.677 60.5827 118.001C60.9978 119.74 59.4159 121.34 57.4452 121.205C53.5237 120.939 49.5935 120.725 45.705 120.197C40.2355 119.452 34.7964 118.481 29.3539 117.531C27.2586 117.165 25.3742 116.445 24.0527 114.488C23.6116 113.833 22.2366 113.806 21.2915 113.495C20.9084 112.961 20.528 112.43 20.1449 111.896L20.1411 111.899ZM54.9245 114.883C54.9814 114.702 55.0355 114.518 55.0884 114.34C53.7848 112.522 52.3718 110.771 51.2032 108.874C49.3022 105.785 49.9976 103.971 53.3742 102.772C64.5337 98.8076 75.1854 93.7294 85.4363 87.8328C94.736 82.4844 103.625 76.5228 111.541 69.2045C117.091 64.0722 122.084 58.489 125.623 51.7547C130.514 42.4569 131.247 32.9861 126.533 23.3707C125.99 22.2645 125.329 21.2134 124.957 20.5555C121.811 21.1762 119.012 21.8913 116.172 22.2639C108.533 23.2664 100.874 24.1265 93.2281 25.0532C92.7955 25.1073 92.3691 25.2269 91.8256 25.3373C94.6189 29.8814 96.419 34.5907 96.8011 39.7815C97.4551 48.63 94.4995 56.4298 89.7638 63.6789C85.6902 69.9118 80.5174 75.123 74.6876 79.7347C68.822 84.3777 62.4921 88.219 55.531 90.9531C52.4579 92.1618 49.2339 92.9899 46.1149 94.086C44.2475 94.7444 43.285 94.5791 42.1812 92.8856C41.2366 91.4388 40.4052 89.9224 39.5403 88.4243C38.8779 87.2815 38.2478 86.127 37.5699 84.9138C32.0902 92.9758 27.3969 101.16 25.204 110.462C35.1121 111.935 45.0268 113.408 54.9377 114.885L54.9245 114.883Z" fill="white"/>
</g>
</svg>
