<svg width="106" height="90" viewBox="0 0 106 90" fill="none" xmlns="http://www.w3.org/2000/svg">
<g id="Capa 16">
<path id="Vector" d="M84.1997 68.0897C83.7123 65.7345 83.3588 63.669 82.8641 61.6408C79.9864 49.849 74.0336 39.7352 65.8002 30.9268C54.1952 18.5025 39.9896 10.0387 24.1954 4.10206C20.8462 2.84439 17.4128 1.82781 14.0035 0.748597C12.0353 0.130221 10.6708 0.739059 9.95621 2.42226C9.2637 4.05898 9.94591 5.71664 11.6301 6.28927C15.6753 7.66504 19.7988 8.84819 23.7865 10.3809C36.5847 15.2999 48.2738 22.0888 58.2147 31.6366C68.2776 41.3032 75.2737 52.7145 77.7427 66.637C77.9712 67.9384 78.15 69.2447 78.3173 70.555C78.4154 71.3596 78.4476 72.1669 78.5262 73.2204C78.0393 72.7782 77.729 72.456 77.3798 72.1836C73.2164 68.9187 69.0644 65.6497 64.8688 62.4246C63.95 61.7162 62.8589 61.5661 61.798 62.1958C60.7021 62.843 60.1473 63.8462 60.1726 65.1118C60.1996 66.2738 60.9119 67.0169 61.8493 67.6183C67.758 71.4032 73.0031 75.9648 77.7551 81.1164C78.3434 81.7569 78.5521 82.3727 78.4545 83.2134C78.2469 85.0407 78.9548 85.909 80.7083 86.4519C81.6456 86.7417 82.5726 87.2051 83.3598 87.7825C84.6527 88.739 85.5931 88.9143 86.7398 88.1203C88.0242 87.2284 88.7846 85.5727 88.0026 84.3728C86.8902 82.6569 87.3499 81.0026 87.6803 79.3324C89.0745 72.2835 91.2734 65.4917 94.3807 59.0026C94.615 58.5176 94.8756 58.0412 95.1415 57.5218C95.442 57.7008 95.6995 57.8744 95.9723 58.0117C97.9065 58.9975 99.5388 58.1209 99.9462 56.0011C100.483 53.1812 99.9429 50.6774 98.1006 48.4512C96.5918 46.6266 94.1509 46.7428 92.9358 48.7637C89.3073 54.779 86.4493 61.1512 84.2051 68.0904L84.1997 68.0897Z" fill="white"/>
</g>
</svg>
