<svg width="112" height="126" viewBox="0 0 112 126" fill="none" xmlns="http://www.w3.org/2000/svg">
<g id="Capa 32">
<path id="Vector" d="M85.3776 94.7248C82.6852 94.4844 80.3336 94.3561 78.0054 94.0653C64.4693 92.373 52.4101 87.0313 41.5143 78.975C26.1466 67.6207 14.8655 52.8523 6.20074 35.9843C4.36473 32.4073 2.78703 28.7052 1.1425 25.0381C0.198304 22.9203 0.70209 21.3184 2.48915 20.3036C4.22717 19.3194 6.16584 19.8673 7.02233 21.6737C9.07995 26.0126 10.9326 30.4637 13.158 34.7181C20.3003 48.3724 29.3871 60.5473 41.3286 70.4145C53.4186 80.4028 67.0608 86.7421 82.923 87.7033C84.4054 87.7906 85.8869 87.8217 87.3714 87.8395C88.2823 87.8453 89.1878 87.7772 90.3741 87.729C89.8176 87.2425 89.4178 86.9376 89.0687 86.5829C84.8867 82.3556 80.7017 78.1417 76.5599 73.8734C75.6506 72.9389 75.3423 71.7401 75.9085 70.4744C76.4897 69.1675 77.5383 68.4188 78.9545 68.2837C80.2553 68.164 81.1768 68.8635 81.969 69.8325C86.9566 75.9412 92.7258 81.2089 99.0901 85.8499C99.8811 86.4241 100.596 86.5777 101.521 86.3604C103.535 85.893 104.596 86.5713 105.428 88.459C105.872 89.4681 106.509 90.4432 107.255 91.2477C108.49 92.5678 108.807 93.5951 108.068 94.9777C107.238 96.5267 105.488 97.5892 104.047 96.8708C101.988 95.8502 100.2 96.5767 98.3783 97.161C90.6883 99.6265 83.3892 102.957 76.5451 107.263C76.0338 107.587 75.5356 107.94 74.99 108.304C75.2285 108.616 75.4556 108.881 75.644 109.168C76.9941 111.2 76.2259 113.136 73.9117 113.864C70.8327 114.827 67.9676 114.547 65.2447 112.777C63.0131 111.328 62.828 108.588 64.9275 106.97C71.1754 102.144 77.9211 98.1312 85.379 94.7307L85.3776 94.7248Z" fill="white"/>
</g>
</svg>
