<svg width="104" height="89" viewBox="0 0 104 89" fill="none" xmlns="http://www.w3.org/2000/svg">
<g id="Capa 17">
<path id="Vector" d="M20.3572 21.6581C20.8791 24.0059 21.2629 26.0661 21.7872 28.0868C24.8376 39.8352 30.9381 49.8605 39.2997 58.5472C51.0857 70.8 65.4139 79.0545 81.2935 84.7589C84.6607 85.9674 88.1086 86.9335 91.5334 87.9626C93.5105 88.552 94.8659 87.9232 95.5558 86.2297C96.2242 84.583 95.5178 82.9356 93.8253 82.3877C89.7604 81.0714 85.62 79.9488 81.6103 78.4748C68.7413 73.744 56.9539 67.1272 46.8741 57.7262C36.6704 48.2082 29.5077 36.9008 26.8348 23.0161C26.5872 21.7181 26.3893 20.4146 26.2028 19.1068C26.0929 18.3038 26.0489 17.497 25.9549 16.4448C26.4482 16.8798 26.7632 17.1975 27.1163 17.4647C31.3272 20.6682 35.5266 23.8759 39.7691 27.0392C40.6982 27.734 41.7914 27.8681 42.843 27.2229C43.9293 26.5597 44.4692 25.5485 44.4254 24.2834C44.3814 23.1219 43.6583 22.3893 42.7122 21.8018C36.7485 18.1039 31.4371 13.6197 26.6101 8.53839C26.0125 7.90658 25.7948 7.29386 25.88 6.45187C26.0608 4.6217 25.3402 3.76384 23.579 3.24676C22.6375 2.97075 21.7038 2.52099 20.9082 1.95514C19.6014 1.01778 18.6586 0.856199 17.5236 1.66696C16.2525 2.57762 15.5164 4.24432 16.316 5.43259C17.4533 7.13195 17.018 8.79284 16.7121 10.4677C15.4214 17.5363 13.3224 24.3596 10.3106 30.8936C10.0834 31.382 9.82982 31.8621 9.57158 32.3854C9.26846 32.2109 9.00849 32.041 8.73367 31.9077C6.78526 30.9504 5.166 31.8508 4.78972 33.9764C4.2942 36.8039 4.87108 39.2995 6.74577 41.4984C8.28126 43.3006 10.7202 43.1487 11.9055 41.1102C15.4454 35.0423 18.2096 28.629 20.3519 21.6575L20.3572 21.6581Z" fill="white"/>
</g>
</svg>
