<svg width="124" height="124" viewBox="0 0 124 124" fill="none" xmlns="http://www.w3.org/2000/svg">
<g id="Capa 23">
<path id="Vector" d="M51.2922 99.1275C50.2277 96.9708 49.2359 95.1248 48.3783 93.2215C43.3936 82.1543 41.8657 70.5186 42.9388 58.5093C44.4458 41.575 50.4396 26.1637 59.2403 11.7675C61.1073 8.71579 63.1889 5.80232 65.213 2.85428C66.3845 1.15599 67.8348 0.796691 69.4336 1.6842C70.9864 2.54864 71.4682 4.27523 70.4925 5.76271C68.1495 9.33573 65.6262 12.805 63.425 16.4664C56.3604 28.2173 51.3205 40.7602 49.356 54.4028C47.3684 68.2142 48.8719 81.5147 55.4894 94.0103C56.1098 95.1769 56.7724 96.3168 57.4465 97.4528C57.864 98.1475 58.3353 98.8038 58.9214 99.6828C59.0332 99.0346 59.0796 98.5897 59.1874 98.1601C60.4616 93.025 61.7243 87.8936 63.0484 82.77C63.337 81.6463 64.1049 80.8568 65.3287 80.7006C66.5909 80.5368 67.6454 80.9865 68.404 81.9998C69.0975 82.9326 68.993 83.9567 68.6238 85.0074C66.2934 91.6261 64.964 98.4491 64.3864 105.434C64.3165 106.301 64.5308 106.915 65.1249 107.517C66.4126 108.83 66.3886 109.95 65.34 111.457C64.7793 112.262 64.3335 113.198 64.068 114.137C63.637 115.687 63.0034 116.403 61.6109 116.483C60.0496 116.569 58.4316 115.732 58.3101 114.305C58.1316 112.268 56.7516 111.246 55.4637 110.133C50.0285 105.433 44.117 101.43 37.6755 98.2256C37.1924 97.9874 36.6939 97.7721 36.1647 97.5261C36.0379 97.8521 35.9417 98.1474 35.8111 98.4234C34.8925 100.39 33.0664 100.703 31.4412 99.2827C29.2832 97.3897 28.169 95.0833 28.2521 92.1949C28.3194 89.8282 30.3153 88.4184 32.5164 89.2642C39.0774 91.7748 45.2504 95.0408 51.2884 99.1314L51.2922 99.1275Z" fill="white"/>
</g>
</svg>
