<svg width="109" height="102" viewBox="0 0 109 102" fill="none" xmlns="http://www.w3.org/2000/svg">
<g id="Capa 31">
<path id="Vector" d="M64.9344 83.6579C62.7876 82.2155 60.8754 81.0023 59.0567 79.7076C48.4833 72.1792 40.8054 63.2812 35.3354 53.3959C27.6165 39.4583 24.8728 25.5506 25.2751 11.7113C25.3617 8.77728 25.7215 5.89695 26.0094 3.00421C26.1802 1.33635 27.3301 0.665164 29.2885 0.951459C31.1919 1.2315 32.5675 2.48433 32.4645 3.93181C32.2176 7.40864 31.7479 10.8502 31.6799 14.3602C31.4618 25.6249 33.545 36.9869 39.0686 48.414C44.6615 59.9821 53.2128 70.2176 66.0673 78.4557C67.2698 79.2242 68.497 79.9601 69.7328 80.6898C70.4934 81.1347 71.2831 81.5347 72.2991 82.0822C72.0537 81.5344 71.8573 81.1664 71.7259 80.7945C70.1421 76.3517 68.5496 71.915 67.0182 67.4682C66.6808 66.4935 66.967 65.659 68.0164 65.2101C69.0971 64.745 70.3158 64.8254 71.5639 65.4347C72.7082 65.9969 73.1626 66.8433 73.3863 67.781C74.7904 73.6895 77.2315 79.4962 80.4559 85.2333C80.8578 85.9448 81.3867 86.3789 82.2613 86.7036C84.1607 87.4124 84.7413 88.3142 84.5811 89.7963C84.4951 90.5884 84.5858 91.4543 84.8456 92.2758C85.2803 93.6285 85.0793 94.3693 83.8324 94.8014C82.4331 95.2841 80.4837 95.0428 79.603 93.934C78.3413 92.3527 76.5133 91.9013 74.7212 91.352C67.1576 89.0333 59.5285 87.3986 51.8376 86.5416C51.2619 86.479 50.6844 86.4389 50.0619 86.3823C50.1199 86.6765 50.1897 86.938 50.2173 87.1933C50.4253 89.0091 48.9024 89.7427 46.6326 89.0371C43.6151 88.095 41.3417 86.546 39.864 84.2148C38.6525 82.3049 39.7422 80.6494 42.236 80.7429C49.664 81.0132 57.139 81.9901 64.9329 83.662L64.9344 83.6579Z" fill="white"/>
</g>
</svg>
