<svg width="140" height="139" viewBox="0 0 140 139" fill="none" xmlns="http://www.w3.org/2000/svg">
<g id="Capa 35">
<path id="Vector" d="M28.1322 57.8368C30.5547 56.6376 32.628 55.5205 34.766 54.5542C47.1977 48.9377 60.2727 47.2053 73.7711 48.3957C92.805 50.0675 110.133 56.7836 126.324 66.6558C129.756 68.7501 133.033 71.0858 136.349 73.3568C138.259 74.6712 138.665 76.3006 137.67 78.0986C136.7 79.8449 134.76 80.3886 133.087 79.2941C129.069 76.6654 125.166 73.8341 121.049 71.365C107.833 63.4406 93.7297 57.7927 78.3946 55.6026C62.8697 53.3867 47.9236 55.0937 33.8888 62.5472C32.5784 63.2459 31.2982 63.9921 30.0224 64.7512C29.2422 65.2213 28.5051 65.7518 27.5181 66.4117C28.2467 66.5365 28.7468 66.5881 29.2297 66.7087C35.0026 68.134 40.7712 69.5465 46.5313 71.0279C47.7945 71.3509 48.6828 72.2128 48.86 73.588C49.0457 75.0063 48.5417 76.192 47.4038 77.0459C46.3564 77.8265 45.2053 77.7104 44.0239 77.2969C36.5823 74.6865 28.9124 73.2013 21.0618 72.5611C20.0874 72.4838 19.3977 72.7254 18.7211 73.3938C17.2471 74.8427 15.9882 74.8172 14.2936 73.6407C13.3881 73.0116 12.3361 72.5118 11.2798 72.2146C9.53799 71.7323 8.73161 71.0211 8.64065 69.4562C8.54101 67.7017 9.48032 65.8821 11.084 65.7437C13.3731 65.5405 14.5195 63.9881 15.7693 62.5393C21.0443 56.4247 25.5347 49.7757 29.1281 42.5321C29.3952 41.9888 29.6365 41.4283 29.9122 40.8333C29.5458 40.6912 29.2138 40.5835 28.9033 40.437C26.6915 39.4072 26.3374 37.3553 27.932 35.5269C30.0567 33.0992 32.6473 31.8439 35.8936 31.9336C38.5535 32.0061 40.1406 34.2474 39.1929 36.7223C36.3798 44.0993 32.7173 51.0412 28.1279 57.8324L28.1322 57.8368Z" fill="white"/>
</g>
</svg>
