<svg width="106" height="103" viewBox="0 0 106 103" fill="none" xmlns="http://www.w3.org/2000/svg">
<g id="Capa 15">
<path id="Vector" d="M66.4336 81.6014C67.0615 79.6121 67.6672 77.8973 68.1523 76.154C70.9712 66.0175 70.8 55.9169 68.3856 45.8894C64.9863 31.7487 57.9898 19.5727 48.7506 8.67879C46.791 6.36966 44.6674 4.21003 42.588 2.01245C41.3856 0.747294 40.1159 0.65991 38.8773 1.65255C37.6748 2.61874 37.4848 4.15577 38.4954 5.27144C40.9226 7.95143 43.4889 10.5164 45.8073 13.2926C53.2483 22.2026 59.0792 32.0881 62.4513 43.3677C65.8643 54.787 66.2652 66.2962 62.2469 77.8893C61.8696 78.9721 61.4532 80.0385 61.0267 81.1033C60.7614 81.7553 60.4459 82.3828 60.0614 83.2163C59.8856 82.6832 59.7905 82.3127 59.6456 81.9644C57.9247 77.7989 56.2141 73.6349 54.4526 69.4866C54.0677 68.5766 53.3202 68.0219 52.2672 68.0729C51.1809 68.1231 50.347 68.6628 49.8337 69.6362C49.3653 70.5315 49.5822 71.3846 50.0258 72.2207C52.8248 77.4865 54.8042 83.0756 56.1692 88.9147C56.3371 89.6396 56.2332 90.1926 55.8074 90.7931C54.8849 92.1001 55.0459 93.0467 56.1205 94.1677C56.695 94.7666 57.189 95.4935 57.5311 96.2507C58.0896 97.5006 58.7146 98.0137 59.9004 97.8722C61.2296 97.7118 62.4906 96.7585 62.414 95.5296C62.3089 93.7747 63.3458 92.7011 64.2934 91.5633C68.2925 86.7611 72.7813 82.4794 77.8179 78.7947C78.1959 78.5202 78.5898 78.2628 79.0057 77.9748C79.1537 78.2323 79.272 78.4684 79.417 78.683C80.4396 80.2141 82.0209 80.2058 83.2147 78.7568C84.7991 76.8273 85.4503 74.7036 85.0173 72.2656C84.6633 70.2678 82.8009 69.371 81.0486 70.4186C75.8239 73.5322 71.0218 77.2285 66.4373 81.6041L66.4336 81.6014Z" fill="white"/>
</g>
</svg>
