<svg width="132" height="139" viewBox="0 0 132 139" fill="none" xmlns="http://www.w3.org/2000/svg">
<g id="Capa 34">
<path id="Vector" d="M103.899 90.3592C101.262 90.953 98.984 91.5495 96.6783 91.9841C83.2726 94.5093 70.1579 93.1082 57.3214 88.767C39.2191 82.6521 23.9645 72.0375 10.5596 58.6243C7.7183 55.7795 5.08474 52.7366 2.39824 49.7475C0.852046 48.0196 0.842217 46.3404 2.23366 44.8279C3.58777 43.3597 5.60113 43.2889 6.96869 44.7473C10.2538 48.2498 13.378 51.9218 16.7971 55.2926C27.7703 66.1111 40.1429 74.9267 54.5286 80.6728C69.0925 86.4886 84.0194 88.3558 99.4165 84.4237C100.855 84.0538 102.275 83.6307 103.694 83.194C104.563 82.9212 105.404 82.5796 106.519 82.1712C105.84 81.878 105.367 81.7099 104.926 81.4788C99.6521 78.7317 94.3795 75.9983 89.1315 73.1998C87.9802 72.5879 87.3203 71.5407 87.4725 70.1626C87.6266 68.7405 88.3962 67.7072 89.7034 67.1458C90.9054 66.6343 91.9966 67.0187 93.047 67.6992C99.6628 71.9916 106.766 75.2443 114.244 77.7185C115.172 78.0235 115.9 77.9514 116.715 77.4615C118.489 76.4012 119.706 76.7229 121.076 78.266C121.807 79.091 122.712 79.8249 123.668 80.3628C125.247 81.2425 125.863 82.1238 125.582 83.666C125.265 85.3945 123.923 86.9411 122.332 86.6973C120.059 86.3548 118.579 87.5928 117.023 88.706C110.454 93.4035 104.522 98.8055 99.321 104.997C98.9332 105.462 98.5665 105.95 98.1582 106.463C98.4808 106.687 98.778 106.87 99.0451 107.086C100.952 108.608 100.812 110.686 98.8307 112.087C96.1933 113.945 93.3796 114.553 90.2461 113.7C87.6784 113.002 86.6648 110.45 88.1697 108.268C92.6437 101.763 97.8405 95.8813 103.903 90.3644L103.899 90.3592Z" fill="white"/>
</g>
</svg>
