<svg width="216" height="150" viewBox="0 0 216 150" fill="none" xmlns="http://www.w3.org/2000/svg">
<g id="Capa 18">
<path id="Vector" d="M34.508 84.9357C36.7492 82.2325 38.5717 79.8158 40.6468 77.5346C52.7146 64.2722 69.8077 55.0623 90.5942 48.9356C119.898 40.2887 152.051 38.3128 185.884 40.5494C193.058 41.0252 200.262 41.861 207.454 42.6019C211.603 43.0357 213.908 44.6606 214.363 47.2529C214.801 49.7723 212.567 51.4641 208.993 51.1485C200.407 50.391 191.776 49.3389 183.215 48.8174C155.739 47.1435 129.379 48.5455 104.881 54.5549C80.0812 60.6402 60.2541 70.8578 47.8029 87.0935C46.6434 88.6127 45.5775 90.1689 44.5315 91.7374C43.8982 92.7032 43.3909 93.7137 42.6582 95.0095C43.8441 94.7476 44.6221 94.5291 45.4479 94.3985C55.3036 92.8183 65.1395 91.2258 75.0356 89.7164C77.2039 89.3832 79.3979 89.8695 81.1038 91.3324C82.8676 92.8394 83.3881 94.4646 82.6417 96.0642C81.949 97.5305 80.1611 98.0365 78.0158 98.2215C64.4962 99.3809 51.8327 101.944 39.7982 105.567C38.3069 106.019 37.5636 106.675 37.2891 107.808C36.6836 110.27 34.8352 110.938 31.1431 110.542C29.1696 110.329 27.1205 110.345 25.2788 110.592C22.2501 111.01 20.3337 110.649 18.5525 108.923C16.5588 106.987 16 104.401 18.1746 103.356C21.2726 101.857 21.295 99.4596 21.5762 97.1226C22.7637 87.2594 22.2524 77.2245 19.8165 67.0114C19.6303 66.2467 19.3886 65.4768 19.1604 64.6487C18.4803 64.6903 17.8864 64.752 17.2828 64.7577C12.9968 64.8142 10.3215 62.6811 10.7016 59.7223C11.2169 55.7895 13.6422 52.9295 18.434 51.2328C22.3593 49.8416 27.0184 51.5065 28.2557 54.8408C31.9614 64.773 33.9793 74.6819 34.4972 84.9332L34.508 84.9357Z" fill="white"/>
</g>
</svg>
