<svg width="172" height="174" viewBox="0 0 172 174" fill="none" xmlns="http://www.w3.org/2000/svg">
<g id="Capa 36">
<path id="Vector" d="M99.3002 143.293C96.0739 140.944 93.1943 138.976 90.4669 136.859C74.6107 124.545 63.3753 109.6 55.6587 92.7482C44.7688 68.9889 41.6248 44.8777 43.3753 20.631C43.7483 15.4904 44.5426 10.4215 45.2259 5.33681C45.6274 2.40474 47.4727 1.13701 50.4997 1.4789C53.4414 1.81432 55.482 3.89465 55.2041 6.43564C54.5372 12.539 53.5263 18.5988 53.1354 24.7455C51.8808 44.4729 54.2028 64.1834 61.8775 83.7284C69.6489 103.515 82.1359 120.729 101.487 134.099C103.298 135.346 105.149 136.534 107.015 137.71C108.163 138.427 109.361 139.063 110.898 139.938C110.561 139 110.285 138.372 110.11 137.732C108.004 130.087 105.884 122.453 103.86 114.797C103.414 113.119 103.928 111.636 105.598 110.765C107.319 109.864 109.211 109.906 111.105 110.87C112.842 111.761 113.481 113.205 113.753 114.828C115.46 125.051 118.79 135.013 123.346 144.789C123.915 146.002 124.703 146.718 126.039 147.215C128.939 148.301 129.77 149.832 129.401 152.438C129.202 153.831 129.273 155.339 129.611 156.755C130.178 159.086 129.805 160.399 127.828 161.256C125.609 162.214 122.593 161.95 121.312 160.082C119.475 157.418 116.664 156.776 113.918 155.961C102.326 152.518 90.5771 150.277 78.6685 149.402C77.777 149.339 76.8808 149.316 75.9159 149.268C75.9823 149.778 76.0699 150.23 76.0921 150.674C76.2686 153.834 73.8372 155.241 70.3593 154.191C65.7362 152.788 62.3214 150.262 60.2093 146.303C58.4775 143.06 60.3091 140.075 64.1855 140.036C75.7321 139.906 87.2948 141.008 99.2976 143.301L99.3002 143.293Z" fill="white"/>
</g>
</svg>
