<svg width="112" height="121" viewBox="0 0 112 121" fill="none" xmlns="http://www.w3.org/2000/svg">
<g id="Capa 30">
<path id="Vector" d="M24.3619 82.674C26.7518 82.944 28.8247 83.2512 30.9061 83.4125C43.0079 84.3487 54.4722 81.8404 65.4061 76.7583C80.8259 69.5979 93.2914 58.7332 103.85 45.572C106.088 42.7808 108.123 39.8345 110.21 36.9306C111.41 35.2527 111.256 33.7665 109.879 32.5634C108.54 31.3957 106.752 31.528 105.683 32.9502C103.117 36.3661 100.709 39.9163 98.0106 43.2287C89.3517 53.8596 79.2611 62.8543 67.093 69.3287C54.774 75.8822 41.7518 78.9782 27.7526 76.9902C26.4447 76.8022 25.1477 76.5654 23.8503 76.3164C23.0553 76.1593 22.278 75.9385 21.2524 75.6852C21.8242 75.3602 22.227 75.1656 22.5946 74.9186C26.9934 71.9785 31.3925 69.0505 35.7635 66.0674C36.7227 65.4148 37.205 64.4247 36.937 63.2204C36.6631 61.9775 35.8824 61.138 34.6718 60.768C33.5592 60.4319 32.6312 60.8774 31.768 61.5811C26.3317 66.0179 20.3638 69.5822 13.9889 72.4943C13.1971 72.8539 12.5468 72.8605 11.7784 72.5061C10.1065 71.7399 9.0609 72.1423 7.99914 73.6396C7.43195 74.4402 6.70299 75.1768 5.90913 75.7452C4.59775 76.6761 4.13831 77.5151 4.5359 78.852C4.98365 80.3503 6.32036 81.5884 7.70407 81.2187C9.68093 80.6958 11.11 81.6477 12.5943 82.4816C18.8589 86.001 24.6286 90.205 29.8279 95.178C30.2159 95.5517 30.5874 95.9477 30.9983 96.3621C30.7346 96.5919 30.4895 96.7825 30.2741 96.9991C28.7351 98.5302 29.06 100.354 30.9476 101.401C33.4602 102.79 36.0078 103.056 38.6968 101.998C40.9005 101.132 41.55 98.7763 40.0079 96.9925C35.4211 91.6716 30.2553 86.9719 24.3596 82.6789L24.3619 82.674Z" fill="white"/>
</g>
</svg>
