<svg width="156" height="101" viewBox="0 0 156 101" fill="none" xmlns="http://www.w3.org/2000/svg">
<g id="Capa 29">
<path id="Vector" d="M9.09623 71.1942C11.1623 66.7283 14.3327 63.0397 17.5516 59.4212C21.371 55.129 25.3365 50.9588 30.2436 47.8503C31.0665 47.3268 31.9583 46.9119 32.8227 46.4506C35.4556 45.0509 38.3668 47.4382 38.9925 49.5519C39.9394 52.7349 40.7141 55.9698 41.483 59.2014C41.6896 60.0666 42.0028 60.3341 42.9012 60.2312C51.5641 59.2453 60.1057 57.6356 68.42 54.9947C76.8745 52.3107 84.9705 48.8518 91.7431 42.8961C98.777 36.7122 102.18 29.0237 101.195 19.6105C100.986 17.6233 100.434 15.6709 99.9779 13.7119C99.7036 12.5268 99.7512 11.4795 100.758 10.6606C101.769 9.83589 102.855 9.77482 104.038 10.2853C104.493 10.4798 105.017 10.5478 105.512 10.6187C110.771 11.3702 116.046 12.0193 121.289 12.8734C126.492 13.7236 131.664 14.7834 136.855 15.7154C137.163 15.7685 137.639 15.5702 137.857 15.3291C139.583 13.4073 142.069 13.7144 142.968 16.1458C145.056 21.7872 146.012 27.61 145.153 33.6241C143.787 43.1541 138.649 50.5022 131.592 56.6728C124.301 63.0492 115.858 67.4609 106.905 71.016C98.6086 74.3139 90.0533 76.6823 81.2806 78.2178C69.2742 80.3168 57.2096 81.2503 45.066 79.3964C44.7541 79.3492 44.4306 79.3492 43.747 79.3053C44.1172 81.9201 44.5177 84.3943 44.7946 86.8826C44.9453 88.2436 45.0396 89.6493 44.8792 91.0019C44.6624 92.7768 42.6221 93.7256 40.8218 92.9128C37.2387 91.2971 33.6291 89.7278 30.1683 87.8778C25.3009 85.2741 20.5405 82.4697 15.7701 79.6827C13.9334 78.6102 12.418 77.2785 11.8607 74.9843C11.6757 74.2161 10.396 73.7123 9.61862 73.091C9.4456 72.4568 9.27382 71.8271 9.1008 71.1929L9.09623 71.1942ZM40.6615 86.1082C40.7777 85.9588 40.8925 85.8049 41.0041 85.6568C40.4153 83.4987 39.7009 81.3651 39.2664 79.1796C38.5605 75.622 39.8442 74.1639 43.4272 74.2158C55.2687 74.3874 67.0221 73.3377 78.685 71.3814C89.2654 69.6077 99.6744 67.1159 109.644 63.0136C116.634 60.136 123.259 56.642 128.923 51.5624C136.746 44.5505 140.732 35.9283 139.663 25.2732C139.54 24.0471 139.286 22.8318 139.166 22.0852C136.001 21.5711 133.129 21.2665 130.336 20.6263C122.827 18.9051 115.348 17.0434 107.858 15.2484C107.434 15.1485 106.993 15.112 106.445 15.0262C107.48 20.2587 107.527 25.3001 106.077 30.2989C103.607 38.821 98.1199 45.1026 91.1556 50.2479C85.166 54.6714 78.5018 57.7543 71.4306 60.0462C64.315 62.3551 57.0434 63.7507 49.566 63.8886C46.2643 63.9512 42.9538 63.6043 39.6483 63.5452C37.6685 63.5118 36.8239 63.0216 36.3791 61.0497C35.9978 59.3645 35.7467 57.6535 35.4578 55.9479C35.235 54.6458 35.0465 53.3442 34.8336 51.9709C26.8888 57.619 19.6383 63.6561 14.3426 71.611C23.1171 76.443 31.8974 81.2783 40.6732 86.1148L40.6615 86.1082Z" fill="white"/>
</g>
</svg>
