<svg width="74" height="63" viewBox="0 0 74 63" fill="none" xmlns="http://www.w3.org/2000/svg">
<g id="Capa 33">
<path id="Vector" d="M15.0716 47.7106C15.3975 46.068 15.6318 44.6278 15.9647 43.2127C17.9009 34.9859 21.9878 27.9098 27.6701 21.7296C35.6793 13.0123 45.5219 7.03794 56.4851 2.81396C58.8099 1.91911 61.1947 1.19163 63.5623 0.420689C64.9292 -0.0211371 65.8828 0.394974 66.39 1.56286C66.8815 2.69851 66.416 3.85661 65.2466 4.26496C62.4379 5.24603 59.5736 6.09343 56.8058 7.18343C47.9228 10.6817 39.8228 15.4756 32.9558 22.1804C26.0045 28.9686 21.1986 36.9541 19.5592 46.6621C19.4075 47.5696 19.2905 48.4802 19.1815 49.3935C19.1178 49.9542 19.1 50.5166 19.0513 51.2506C19.3878 50.9398 19.602 50.7137 19.8436 50.5221C22.7238 48.225 25.596 45.9251 28.4989 43.6555C29.1346 43.157 29.8934 43.0462 30.6357 43.4786C31.4025 43.923 31.7945 44.6183 31.7842 45.4997C31.772 46.3089 31.2803 46.8304 30.6311 47.2544C26.5386 49.9236 22.9126 53.1298 19.6334 56.7439C19.2275 57.1933 19.0857 57.6233 19.1584 58.208C19.3134 59.4792 18.8255 60.0878 17.6077 60.4758C16.9568 60.683 16.314 61.0109 15.7691 61.4175C14.8744 62.0908 14.2206 62.2183 13.4177 61.672C12.5183 61.0584 11.9793 59.9099 12.517 59.0699C13.2816 57.8689 12.9521 56.7196 12.7125 55.5586C11.7014 50.6586 10.1315 45.9422 7.93084 41.4417C7.76489 41.1054 7.58071 40.7752 7.39261 40.415C7.18438 40.5414 7.00612 40.6637 6.81693 40.7609C5.47587 41.4584 4.33431 40.8574 4.03852 39.3837C3.64851 37.4233 4.01033 35.6769 5.2803 34.1163C6.32047 32.8373 8.02067 32.9042 8.87827 34.3043C11.4392 38.4719 13.4656 42.8923 15.0679 47.7111L15.0716 47.7106Z" fill="white"/>
</g>
</svg>
