<svg width="125" height="122" viewBox="0 0 125 122" fill="none" xmlns="http://www.w3.org/2000/svg">
<g id="Capa 24">
<path id="Vector" d="M100.303 54.1969C98.2654 52.9196 96.5293 51.7461 94.7224 50.7003C84.2164 44.6215 72.795 41.9241 60.7387 41.7766C43.7389 41.5626 27.8002 45.9664 12.5875 53.2654C9.36252 54.814 6.25339 56.5902 3.11568 58.3056C1.30758 59.2992 0.803391 60.7057 1.52458 62.3861C2.22748 64.0184 3.89647 64.6724 5.47502 63.8523C9.26677 61.8828 12.9736 59.7235 16.8388 57.904C29.2442 52.0646 42.2326 48.3196 56.004 47.7455C69.9457 47.1655 83.0258 50.0069 94.7877 57.8547C95.8856 58.59 96.9526 59.3645 98.0146 60.1501C98.6634 60.6358 99.2687 61.171 100.084 61.843C99.4277 61.8887 98.9804 61.8899 98.5421 61.9537C93.3044 62.7018 88.0716 63.4388 82.8403 64.2377C81.6932 64.4112 80.83 65.0952 80.5508 66.2969C80.2601 67.5361 80.6009 68.6306 81.5323 69.4879C82.39 70.2722 83.4195 70.2719 84.5021 70.0109C91.3227 68.3621 98.2451 67.7299 105.252 67.8618C106.122 67.8801 106.711 68.1554 107.251 68.8074C108.427 70.2213 109.543 70.3108 111.148 69.4201C112.006 68.9436 112.982 68.5948 113.943 68.4257C115.528 68.1537 116.306 67.5959 116.525 66.2186C116.77 64.6741 116.1 62.9796 114.693 62.7143C112.684 62.3307 111.807 60.8543 110.83 59.4604C106.704 53.5776 103.32 47.2915 100.784 40.5588C100.596 40.054 100.432 39.5363 100.241 38.985C100.578 38.8918 100.881 38.826 101.169 38.7239C103.219 38.0091 103.715 36.224 102.466 34.4634C100.801 32.125 98.6194 30.7831 95.7375 30.5735C93.3761 30.401 91.7715 32.2441 92.3903 34.5194C94.2242 41.3008 96.8489 47.7726 100.308 54.1934L100.303 54.1969Z" fill="white"/>
</g>
</svg>
