<svg width="124" height="124" viewBox="0 0 124 124" fill="none" xmlns="http://www.w3.org/2000/svg">
<g id="Capa 37">
<path id="Vector" d="M71.3703 99.4271C72.4758 97.2911 73.5027 95.4644 74.3964 93.5777C79.5913 82.6076 81.341 71.0032 80.4971 58.9756C79.3134 42.0156 73.6147 26.4928 65.0902 11.9314C63.2818 8.84458 61.2562 5.89193 59.2887 2.90581C58.1498 1.18548 56.7066 0.79858 55.0912 1.65542C53.5222 2.49009 53.0075 4.20717 53.9546 5.713C56.2291 9.33006 58.6857 12.8469 60.8167 16.5496C67.6558 28.4331 72.4555 41.0698 74.1594 54.7474C75.8832 68.5943 74.1262 81.8636 67.2716 94.2307C66.629 95.3853 65.9448 96.5123 65.2491 97.6353C64.8184 98.3218 64.3348 98.9691 63.732 99.8367C63.6326 99.1865 63.5946 98.7408 63.4951 98.3093C62.319 93.1507 61.1545 87.9962 59.9284 82.8483C59.6612 81.7193 58.9085 80.9153 57.6879 80.7357C56.4291 80.5479 55.3663 80.9774 54.5884 81.9761C53.8773 82.8954 53.9622 83.9213 54.3113 84.9789C56.515 91.6409 57.714 98.488 58.1583 105.482C58.2116 106.35 57.9856 106.96 57.3802 107.551C56.0676 108.84 56.0703 109.96 57.0899 111.486C57.6352 112.302 58.063 113.246 58.3106 114.19C58.7119 115.748 59.3317 116.476 60.7224 116.582C62.2818 116.699 63.9155 115.892 64.0642 114.468C64.2815 112.434 65.6808 111.439 66.9897 110.351C72.5136 105.755 78.5003 101.866 85.0018 98.7851C85.4894 98.5561 85.9919 98.3504 86.5256 98.1146C86.6462 98.4429 86.7368 98.74 86.8621 99.0185C87.7429 101.003 89.5628 101.35 91.2148 99.9609C93.4085 98.1094 94.5665 95.8247 94.5385 92.9353C94.5164 90.5677 92.5477 89.12 90.3309 89.9237C83.7232 92.3088 77.489 95.4564 71.3741 99.431L71.3703 99.4271Z" fill="white"/>
</g>
</svg>
