<svg width="80" height="57" viewBox="0 0 80 57" fill="none" xmlns="http://www.w3.org/2000/svg">
<g id="Capa 28">
<path id="Vector" d="M43.7485 56.9922C35.3195 56.7484 24.0257 55.0083 13.8625 48.9077C9.44609 46.2583 5.86708 42.7658 3.24446 38.4094C-2.27283 29.242 -0.691603 18.1982 7.51631 9.93181C15.9453 1.44225 26.236 -1.8271 38.0952 0.987599C48.5941 3.47991 58.4343 7.71642 67.3393 13.7013C71.9215 16.7805 75.3772 21.0418 77.834 25.9644C82.99 36.2974 78.6544 48.1141 67.8706 53.1608C61.2694 56.2482 54.2134 57.0625 43.7485 56.9963V56.9922ZM42.1672 4.30241C41.2236 4.11228 40.2885 3.88909 39.3363 3.7403C28.5568 2.03329 18.8782 4.00896 11.1633 12.0315C7.05725 16.301 4.2391 21.2939 3.83529 27.2416C3.2317 36.1196 7.36754 42.4517 15.3927 46.4443C29.6875 53.5575 44.7984 54.9959 60.3811 52.0407C68.4232 50.5155 74.3145 45.9732 76.2783 38.0209C78.2846 29.9157 74.7481 23.377 68.674 17.9667C64.7719 14.4866 59.9858 12.3538 55.1486 10.6675C44.8961 7.09644 34.3419 7.14191 23.7664 9.43996C22.7972 9.65075 21.7941 9.68795 20.8037 9.80781C20.7484 9.50609 20.6932 9.20436 20.6379 8.90678C26.8906 3.7527 34.5884 4.64546 42.1587 4.30654L42.1672 4.30241Z" fill="white"/>
</g>
</svg>
