<svg width="46" height="46" viewBox="0 0 46 46" fill="none" xmlns="http://www.w3.org/2000/svg">
<g id="map-pin">
<path id="Vector" d="M40.25 19.1666C40.25 32.5833 23 44.0833 23 44.0833C23 44.0833 5.75 32.5833 5.75 19.1666C5.75 14.5916 7.56741 10.204 10.8024 6.96903C14.0374 3.73403 18.425 1.91663 23 1.91663C27.575 1.91663 31.9626 3.73403 35.1976 6.96903C38.4326 10.204 40.25 14.5916 40.25 19.1666Z" stroke="#FF0000" stroke-width="2" stroke-linecap="round" stroke-linejoin="round"/>
<path id="Vector_2" d="M23 24.9166C26.1756 24.9166 28.75 22.3423 28.75 19.1666C28.75 15.991 26.1756 13.4166 23 13.4166C19.8244 13.4166 17.25 15.991 17.25 19.1666C17.25 22.3423 19.8244 24.9166 23 24.9166Z" stroke="#FF0000" stroke-width="2" stroke-linecap="round" stroke-linejoin="round"/>
</g>
</svg>
