<svg width="111" height="112" viewBox="0 0 111 112" fill="none" xmlns="http://www.w3.org/2000/svg">
<g id="refresh-cw">
<path id="Vector" d="M106.375 18.6666V46.6666H78.625" stroke="#FF0000" stroke-width="2" stroke-linecap="round" stroke-linejoin="round"/>
<path id="Vector_2" d="M4.625 93.3334V65.3334H32.375" stroke="#FF0000" stroke-width="2" stroke-linecap="round" stroke-linejoin="round"/>
<path id="Vector_3" d="M16.5232 41.9963C18.8515 35.3062 22.8087 29.3249 28.0256 24.6104C33.2424 19.8959 39.5487 16.6019 46.3562 15.0358C53.1637 13.4697 60.2505 13.6825 66.9552 15.6543C73.6599 17.6262 79.7641 21.2929 84.6982 26.3122L106 46.6642M5 65.3358L26.3018 85.6878C31.2359 90.7071 37.3401 94.3738 44.0448 96.3457C50.7495 98.3175 57.8363 98.5303 64.6438 96.9642C71.4513 95.3981 77.7576 92.1041 82.9744 87.3896C88.1913 82.6751 92.1485 76.6938 94.4768 70.0037" stroke="#FF0000" stroke-width="2" stroke-linecap="round" stroke-linejoin="round"/>
</g>
</svg>
