<svg width="8" height="207" viewBox="0 0 8 207" fill="none" xmlns="http://www.w3.org/2000/svg">
<path id="Vector" d="M7.24697 203.987C7.80753 201.503 7.05958 198.281 7.39028 195.571C7.40915 195.251 7.04502 195.665 7.10519 194.941C7.51408 192.312 7.0811 188.202 6.59508 185.032L6.50494 185.227C6.40956 184.623 6.71646 183.872 6.64928 183.232C6.5822 183.234 6.55956 183.439 6.46659 183.292C6.6584 183.126 6.52067 182.128 6.65851 181.852C6.57046 181.599 6.41618 181.63 6.31734 181.304L6.53168 180.929C7.0348 179.891 6.41241 178.448 6.64322 177.041C6.59521 177.113 6.55779 177.251 6.50381 177.141C6.75747 174.897 6.60236 172.091 6.64167 169.582C6.56526 169.683 6.42156 169.78 6.32869 169.637C6.55949 169.508 6.59692 168.73 6.62103 168.058C6.36738 167.747 6.8054 166.899 6.64535 166.115L6.59305 166.184C6.82972 165.595 6.41801 165.327 6.70856 164.845L6.50354 164.481C6.83895 164.214 6.29978 163.644 6.46015 163.16L6.53142 163.157C6.60039 162.702 6.42074 162.471 6.4656 162.048L6.42232 162.008C6.48227 161.022 6.27055 160.454 6.53971 160.47C6.31457 160.133 6.47473 161.431 6.13397 160.896C6.30431 157.648 6.14007 154.308 6.03716 151.047C5.99867 150.81 5.91034 150.58 5.77554 150.365C5.77689 149.854 5.82178 149.342 5.90992 148.834C5.91359 148.946 5.76475 148.631 5.74651 148.459C5.62629 147.866 6.02323 147.811 5.87984 147.151C5.81716 147.415 5.73195 147.504 5.6285 147.421C5.76464 146.771 5.82591 146.114 5.81161 145.457C5.76885 145.561 5.74474 145.721 5.66005 145.699C5.87545 144.973 5.56666 144.389 5.69695 143.755L5.54958 143.996C5.32759 142.988 5.86256 143.686 5.72473 142.812C5.68134 143.024 5.62023 142.952 5.5586 142.993C5.81267 142.167 5.67694 140.845 5.74245 140.028C5.74402 140.076 5.68072 140.066 5.68072 140.066C5.68921 139.174 5.57067 138.248 5.66018 137.268C5.58147 136.916 5.28662 137.395 5.31031 136.455C5.6258 136.477 5.38788 134.855 5.75819 135.396C5.63398 134.531 5.58433 133.659 5.60957 132.787C5.50402 133.152 5.21526 132.411 5.19943 133.079L4.9942 132.581C4.87084 132.658 5.05311 133.096 4.88855 132.942C4.87754 132.607 4.98393 131.629 4.92419 131.344C5.09253 130.718 5.43014 130.135 5.43496 129.132C5.32889 129.608 5.08645 128.872 5.04253 129.196L5.59187 127.775C5.58139 127.456 5.3421 127.71 5.41013 127.226C5.49062 127.249 5.53821 127.036 5.5967 126.9C5.55907 126.777 5.63077 125.509 5.31989 125.372C5.19348 125.23 5.27073 125.92 5.15375 125.554C5.13353 124.938 5.23761 124.912 5.22136 124.29L5.18363 124.291C5.1241 123.884 5.27419 123.087 5.45646 123.525C5.46579 123.809 5.26843 123.422 5.37052 123.847C5.54416 123.314 5.60548 122.766 5.55216 122.221C5.50867 122.43 5.42398 122.408 5.34295 122.497C5.52382 121.611 5.62771 120.719 5.65395 119.825C5.80016 119.804 5.40113 120.178 5.48111 120.313C5.24088 119.133 5.68991 117.853 5.36813 116.873C5.34832 117.037 5.58069 116.956 5.53835 116.944C5.49862 116.374 5.28983 116.406 5.35723 116.03C5.2303 115.999 5.37966 115.563 5.40482 115.179C5.49056 114.978 5.34277 115.079 5.337 115.414C5.49141 114.111 5.48777 112.802 5.32611 111.504C5.4108 111.527 5.60304 110.735 5.58543 110.454L5.39613 110.569C5.27025 110.314 5.36469 109.612 5.21669 109.578C5.42727 108.961 5.09206 111.918 5.26637 111.091C5.10013 110.885 5.53491 109.938 5.28105 110.132C5.26229 109.561 5.46636 109.001 5.26816 108.462C5.30275 108.62 5.01922 108.933 5.01661 108.47C5.02353 107.658 5.1013 108.237 5.1426 107.578L5.20873 107.163C5.39227 107.129 5.15979 106.44 5.37927 106.733C5.22089 106.639 5.43283 105.552 5.12531 105.645L4.88581 105.765C4.94099 105.468 5.05456 105.177 5.22268 104.904C5.20025 104.86 5.1469 104.769 5.10969 104.787C5.48105 104.72 5.04869 103.952 5.32436 103.527C5.17028 102.798 5.26305 101.66 5.00845 101.32C5.14537 100.749 5.18273 100.168 5.11956 99.5917C5.08602 99.7206 5.0834 99.8964 5.005 99.9373C4.92389 99.6493 4.92984 99.3498 5.0224 99.0614C4.97062 99.1462 4.77776 98.258 4.63312 97.8155C4.72368 97.2503 4.93122 97.4351 5.03834 97.3741C4.65262 96.8756 5.22072 95.7708 4.86854 95.1434C4.82033 95.3367 4.71509 95.9663 4.60336 95.5035C4.22173 95.0017 4.84192 94.4606 4.63859 93.6367L4.95135 93.8309C4.75063 93.4701 5.08741 92.6061 4.77998 92.7024C4.87987 92.4212 4.64729 91.7292 4.948 91.812C4.6518 90.4608 4.99046 88.5041 4.43023 87.6759C4.47415 87.4796 4.4078 86.993 4.56209 87.0902C4.74028 87.4038 4.45948 87.544 4.58085 87.6614C4.57509 87.4859 4.66187 87.4447 4.70328 87.4274C4.62225 87.0051 4.59039 86.6739 4.35613 87.0809C4.14084 86.1488 4.83199 86.1069 4.67498 84.9045C4.55099 84.9629 4.50183 84.8718 4.51126 84.5201L4.69909 83.8495C4.62761 83.0787 4.40383 83.4215 4.19357 83.4092C4.21768 82.9931 4.19274 82.4892 4.34168 82.2958L4.06109 81.8035C4.2659 82.1609 4.17566 81.4579 4.21957 81.2616L4.17566 81.4579C4.10813 81.1968 4.09931 80.9282 4.14956 80.6633C4.28142 80.7165 4.35196 81.2029 4.39839 81.4665C4.48371 81.2529 4.45195 80.9249 4.54754 80.6406C4.34514 80.7399 4.38288 79.972 4.34693 79.6441C4.31098 79.3162 4.51746 79.2136 4.5096 79.102C4.4006 79.1056 4.46852 78.49 4.33142 78.7884C4.30207 78.9172 4.44168 79.0787 4.34798 79.2926C4.26025 79.0495 4.07672 79.0843 4.1939 78.5629C4.28593 78.1701 4.61641 78.6481 4.44965 77.9156C4.40437 78.0482 4.3396 78.1768 4.25658 78.2989L4.12494 77.6132L4.31266 77.5783C4.2635 77.4872 4.24883 77.5516 4.22221 77.5078C4.41255 77.297 4.24632 76.4527 4.46339 76.2891C4.45197 75.9412 4.30942 75.5625 4.27756 75.2313L4.27965 75.2952C4.17753 74.8726 4.19325 74.4367 4.32578 74.0158L4.28448 74.0363C4.25803 73.6927 4.28899 73.3471 4.37661 73.0078C4.21981 72.4507 3.66607 72.8426 3.88053 72.2158C3.86187 71.6478 4.19497 71.311 4.31991 71.5369C4.1606 70.5199 4.42851 69.3482 4.10809 68.4099C4.17874 68.2606 4.2279 68.3517 4.25987 68.0471C4.13933 66.5496 4.378 64.8709 3.97405 63.6894C3.90864 64.126 3.78633 63.7243 3.6812 63.7182C3.83716 63.3553 3.49096 63.2932 3.77606 63.156C3.94491 63.1856 4.02761 63.1478 4.10853 63.5668C4.18391 62.6461 4.13111 61.7237 3.951 60.815C4.03883 61.0613 4.08286 60.8681 4.12667 60.6686C3.86054 60.7445 3.79692 60.0853 3.8769 59.5811L4.0381 59.5055L3.85992 59.1919C3.90394 58.9987 4.1968 58.97 4.02123 58.4806C3.97961 58.4681 3.94202 58.4492 3.91087 58.4249C3.87972 58.4006 3.85569 58.3715 3.84032 58.3395C3.95751 57.8182 4.16001 57.0831 4.00321 56.526L3.74914 56.0743C3.77063 55.834 3.90008 55.4304 3.98089 55.8463C3.8069 54.8936 3.7699 54.2782 3.55031 53.982C3.98666 52.316 3.92892 49.9187 3.8283 48.0052L3.7086 48.0666C3.57434 47.5567 3.91362 47.7916 3.81342 47.4243C3.70567 47.5939 3.54897 47.04 3.41932 47.4372C3.26524 46.7075 3.5975 46.473 3.64079 46.0019C3.7977 45.9233 3.54866 46.3915 3.75106 46.2922C3.80703 46.2073 3.59174 45.2752 3.83114 45.1523C3.72874 44.9736 3.55317 45.1231 3.45999 45.2252L3.56261 44.7714C3.25938 44.2286 3.09649 46.0422 2.72534 45.4761L2.74945 45.06C2.48071 44.6727 2.49611 46.1641 2.3739 45.1267C2.48071 44.6727 2.8202 44.275 2.94242 44.6735C2.97858 43.7299 3.51083 44.2172 3.45664 43.2063C3.30508 42.9365 3.44972 44.0179 3.24209 43.8299C3.02942 43.3608 3.31965 42.8689 3.23874 42.4499C3.34638 42.916 3.57655 42.5123 3.61261 42.2044C3.48254 41.6943 3.3925 42.5311 3.34397 41.8203C3.48254 41.6943 3.56534 41.0207 3.68085 41.5984C3.99079 41.323 3.56786 40.8417 3.80223 40.4379C3.57226 40.2091 3.30697 41.2049 3.16747 40.4076C3.38968 40.5281 3.43276 39.4118 3.76523 39.8226C3.69186 39.5055 3.52332 39.4855 3.3966 39.7165C3.24776 39.2741 3.75507 38.6185 3.32249 38.4826L3.53967 38.3221C3.45959 38.1841 3.39849 37.9849 3.27365 37.7622C3.26066 37.3665 3.52941 36.4759 3.19945 36.5251C3.2288 36.3963 3.1657 35.4975 3.42868 35.8371C3.58548 36.3942 3.27775 36.481 3.60267 36.7898C3.33393 36.4025 3.60959 35.9781 3.68286 35.653L3.55111 35.603C3.59513 35.4099 3.5553 34.964 3.68978 34.8414C3.61913 34.9906 3.52857 34.9169 3.49419 34.7647L3.69418 34.592C3.76483 33.8038 3.34012 34.4184 3.37345 33.6442L3.23729 34.2269C3.16972 33.9814 3.132 33.7314 3.12462 33.4798C3.30019 33.3303 3.50531 33.0584 3.63968 32.9326C3.70519 32.4992 3.43205 32.7445 3.61946 32.3167L3.42387 32.879C3.3637 32.964 3.11383 32.5122 3.09895 31.9313C3.14989 31.5654 3.39107 30.9856 3.50657 31.5633C3.49704 31.2729 3.37901 30.8742 3.25229 31.1052C3.29422 30.4649 3.44798 31.185 3.54274 30.6197C3.41361 30.3939 3.22201 29.6718 3.03198 29.2531L2.75369 29.8533L2.7408 29.4608C2.51849 29.976 2.54794 29.2115 2.32249 29.5033C2.29611 29.2192 2.3249 28.933 2.40791 28.6539C2.85274 29.4188 2.93251 27.7581 3.31352 27.9852C3.37903 26.9128 2.3902 27.3478 2.9322 26.2151C3.03461 26.3938 3.29822 25.8581 3.2152 26.5253C3.15148 25.8629 3.56927 26.06 3.39266 25.2831C3.25661 25.869 2.99436 24.6573 2.80433 25.5165C2.92414 25.4582 2.91198 25.9826 2.87843 26.1114C2.73107 25.8415 2.51137 26.181 2.48905 25.5013C2.50897 25.0853 2.49859 24.5138 2.69417 24.5904C2.90443 24.6027 2.68998 25.2295 2.89909 24.9511C2.94322 24.1222 2.61609 24.002 2.98189 23.6386C2.96973 24.1629 3.19152 24.2706 3.33826 24.2658L3.40639 23.6566L3.26772 23.7793C3.13503 22.8061 3.51404 23.4837 3.44518 22.5372L3.15401 22.1059C2.92236 22.3371 3.30389 23.4747 2.90853 23.3215C2.8883 22.7056 3.06606 22.4953 2.94228 21.9211C2.91304 22.0531 2.91083 22.2416 2.88096 22.3544C2.87384 22.1374 2.33414 21.9347 2.61149 21.0503C2.714 20.5933 2.74586 20.9245 2.89229 20.9101C2.90183 19.9226 3.04322 19.6273 3.04323 18.9883C2.76243 19.1285 2.98118 17.8658 2.71075 18.5775C2.88894 18.8912 2.91902 20.3182 2.65803 20.6782C2.31078 20.3286 2.72951 21.4489 2.39693 21.6739C2.37094 20.8825 2.0326 20.9319 1.81039 20.8114C1.8068 20.6212 1.83727 20.4311 1.90095 20.2462C2.10335 20.1469 2.10859 20.4342 2.32713 20.443C2.2352 19.7003 2.29692 18.9491 2.51003 18.2168C2.39977 17.9265 2.19737 18.0258 2.19203 18.3741C2.21624 17.3223 2.15011 16.2032 2.05871 15.2094C2.41089 15.8368 2.0976 14.0932 2.39297 14.5244C2.48594 15.0548 2.73581 15.5067 2.87711 15.2081C2.84566 14.8897 2.73036 15.2129 2.6549 15.0876C2.82533 14.6539 2.33962 14.4335 2.61947 14.009C2.54191 14.9699 2.20629 14.2078 1.9605 14.3916C2.0888 13.6974 1.77708 14.4296 1.75507 13.7594C1.87907 13.0621 1.96449 12.2127 1.99804 11.4449C1.71504 10.4958 1.91807 9.01001 1.88988 8.15157C1.74094 7.70601 1.4658 8.01854 1.38677 7.52916C1.3679 6.95474 1.72354 7.94299 1.5573 7.09867L1.45123 7.1916C1.50982 6.93091 1.19895 5.64409 1.61831 5.37794L1.30408 5.65022C1.29273 5.50335 1.31486 5.35563 1.36948 5.2136C1.26467 5.21704 1.16195 5.02873 1.10336 5.28942C0.863961 4.77336 1.10084 4.19054 1.09057 3.62223L1.29538 3.9797C1.41016 3.00156 1.20011 2.35674 1.23669 1.42589L1.05295 1.45429L1.14362 0.892248C0.96774 1.0322 0.833474 0.522269 0.974765 0.22372L0.569756 1.69379C0.692074 2.09549 0.7775 1.2461 0.982832 1.49174C1.14404 1.8916 1.13468 2.32228 0.9561 2.72256C0.927928 2.51789 0.949567 2.31034 1.01993 2.11028C0.760623 2.01018 0.785567 2.51412 0.621636 2.76229C0.615872 2.58678 0.540616 2.34007 0.606439 2.29957C0.494955 2.71671 0.458106 3.14243 0.496904 3.56506C0.584845 3.17561 0.663139 3.77044 0.733785 3.62117C0.504765 3.67661 0.455605 4.22451 0.541656 4.92771C0.822348 5.42325 0.413358 6.2609 0.515655 7.07537C0.764932 6.6739 0.922595 6.24405 0.98177 5.80456C1.11604 6.3145 1.00063 6.37898 1.12652 6.88919C0.831639 7.22197 0.657373 7.60708 0.621724 8.00473L0.794773 8.03419C0.726642 8.64341 0.475086 8.65168 0.550865 9.42549C0.678211 10.7471 0.722962 12.1097 0.777148 13.1207L0.94611 13.1535C0.5998 13.7271 0.873467 15.0311 0.739092 15.7959C0.944525 17.067 0.667495 18.5999 0.982671 19.2509C0.927321 21.5273 0.862644 23.5197 1.00288 25.8727L1.23725 25.4689C1.0709 25.8993 1.38881 25.7387 1.3647 26.1548C1.15203 25.6857 1.12782 26.7376 0.973842 27.0334C1.13402 28.1394 1.1059 29.2592 0.890189 30.3649L1.06334 30.3976C0.775519 31.3463 1.09331 32.4604 1.16951 33.6303C1.3229 33.8389 1.40289 34.0749 1.40188 34.3159C1.15032 34.9631 1.17758 35.2817 1.04498 36.2284C1.06741 36.9114 1.17495 38.0132 1.3024 38.6991C1.00052 41.2647 1.33393 43.8766 1.19064 46.5424L1.39409 46.7306C1.05951 49.3229 1.545 52.476 1.39951 54.6915L1.73209 54.4666C1.85954 55.1524 1.69571 56.0427 1.44678 55.8752C1.57434 56.5643 1.33578 57.6072 1.63104 58.0351C1.71719 58.7415 1.50442 58.9082 1.47758 59.4969C1.62271 60.584 1.66987 61.6786 1.61876 62.7732L1.58732 62.4548C1.65796 62.3055 1.80428 62.2879 1.83615 62.6191C1.76026 63.12 1.98854 64.4479 1.56561 63.9666C1.84714 65.3821 1.48186 67.295 1.84608 68.6727C1.72901 68.5583 1.71947 68.9069 1.64893 69.0593C1.6899 70.3071 1.95498 71.605 1.79943 72.6196C1.86053 72.8189 1.97761 72.2943 2.00696 72.8045C1.97499 73.109 1.86022 72.8093 1.8098 73.1911C1.67081 75.2211 2.16249 77.2847 2.16846 79.1278C2.05808 82.4124 2.27954 85.8329 2.34871 88.9614L2.42722 88.9237C2.15145 89.9838 2.83096 91.3768 2.38476 92.2316C2.47259 92.4779 2.45393 93.1877 2.60696 92.991C2.41221 93.8344 2.88933 95.3266 2.65234 96.5452C2.6432 96.4433 2.65398 96.3407 2.6843 96.2406C2.90462 97.4538 2.69268 98.5405 2.89853 99.8244C2.93197 99.6923 2.94937 99.4554 3.02777 99.4144C3.20344 99.907 2.72265 100.603 3.12577 100.865C3.1352 101.152 2.93543 101.076 2.93805 100.9C3.18593 103.719 3.03331 106.74 3.03749 109.679C3.34564 111.777 3.70841 109.788 3.46942 111.457C3.5494 111.591 3.32174 111.56 3.40213 111.58C3.31409 112.222 3.8543 112.568 3.6845 113.021C3.43525 112.844 3.55998 113.319 3.41408 113.35C3.61112 114.621 3.83794 114.882 3.68659 115.896L3.81404 115.816C3.49268 117.021 3.73081 118.393 3.34876 119.412C3.48898 125.982 3.46506 132.283 3.62509 138.689C3.91258 145.015 3.93164 151.218 4.36073 157.638C4.7456 159.133 4.74089 159.245 4.66101 160.903C4.71342 160.837 4.71835 160.732 4.77652 160.841C4.50253 160.934 4.78962 162.007 4.53062 162.172C4.65901 164.548 4.65544 166.74 4.73603 169.194C4.7527 168.807 4.96851 168.605 4.96684 169.065L4.80647 169.549L4.88455 169.626C4.8573 169.947 4.73006 170.29 4.6309 169.954C4.59787 176.105 5.34549 182.128 5.47565 188.136C5.64 189.562 5.58936 191.599 5.59418 193.151C6.11006 197.741 6.54388 201.876 6.45362 206.54C6.45823 206.553 7.14676 205.92 7.24697 203.987Z" fill="#FF0000"/>
</svg>
