<svg width="43" height="38" viewBox="0 0 43 38" fill="none" xmlns="http://www.w3.org/2000/svg">
<path id="Vector" d="M38.7788 4.15649C37.7785 3.15579 36.591 2.36197 35.2838 1.82036C33.9767 1.27876 32.5757 1 31.1609 1C29.746 1 28.345 1.27876 27.0379 1.82036C25.7308 2.36197 24.5432 3.15579 23.5429 4.15649L21.4671 6.23233L19.3913 4.15649C17.3709 2.13609 14.6306 1.00105 11.7734 1.00105C8.91609 1.00105 6.17584 2.13609 4.15544 4.15649C2.13505 6.17689 1 8.91714 1 11.7744C1 14.6317 2.13505 17.3719 4.15544 19.3923L6.23128 21.4682L21.4671 36.704L36.7029 21.4682L38.7788 19.3923C39.7795 18.3921 40.5733 17.2045 41.1149 15.8974C41.6565 14.5903 41.9353 13.1893 41.9353 11.7744C41.9353 10.3595 41.6565 8.95853 41.1149 7.65142C40.5733 6.34431 39.7795 5.15672 38.7788 4.15649Z" stroke="#FF0000" stroke-width="2" stroke-linecap="round" stroke-linejoin="round"/>
</svg>
