<svg width="205" height="4" viewBox="0 0 205 4" fill="none" xmlns="http://www.w3.org/2000/svg">
<path id="Vector" d="M2.91015 2.16112C5.35117 1.52144 8.56237 2.16606 11.234 1.74891C11.5501 1.71983 11.1515 2.09701 11.866 2.01374C14.4554 1.52101 18.5363 1.82242 21.6877 2.20691L21.4979 2.30322C22.0985 2.37926 22.8322 2.04851 23.4675 2.0952C23.4675 2.16232 23.2651 2.19151 23.4136 2.27973C23.5719 2.08271 24.5644 2.18845 24.8332 2.04187C25.0861 2.12179 25.0606 2.27698 25.3861 2.36535L25.7499 2.13915C26.7619 1.60309 28.2093 2.17906 29.5941 1.90341C29.5245 1.95368 29.3886 1.99551 29.4992 2.04595C31.7123 1.72069 34.4941 1.78604 36.9758 1.66656C36.8777 1.74618 36.7859 1.89292 36.9312 1.98114C37.0515 1.74633 37.8198 1.68408 38.4837 1.63852C38.7996 1.8821 39.625 1.41719 40.4058 1.55211L40.3393 1.60658C40.9149 1.3512 41.1927 1.75415 41.6608 1.44833L42.0274 1.64162C42.2806 1.29786 42.8618 1.81853 43.3361 1.64276L43.3362 1.57145C43.7851 1.48795 44.0189 1.66014 44.4362 1.60178L44.4773 1.64376C45.451 1.55233 46.0199 1.74579 45.9948 1.4773C46.3361 1.69153 45.0464 1.57295 45.5867 1.89642C48.7955 1.62237 52.1053 1.6798 55.336 1.67843C55.5718 1.70932 55.8023 1.79025 56.0186 1.91814C56.5248 1.90044 57.0296 1.83923 57.5299 1.73488C57.4192 1.73479 57.7352 1.87349 57.9059 1.88623C58.497 1.98742 58.5384 1.58895 59.1958 1.71117C58.9366 1.78226 58.8511 1.87028 58.9364 1.97103C59.5758 1.81416 60.2243 1.73192 60.8744 1.72523C60.7732 1.77128 60.6151 1.80051 60.6403 1.88443C61.3518 1.64594 61.9395 1.9359 62.5624 1.78543L62.3284 1.94044C63.3335 2.13008 62.6258 1.61769 63.495 1.72752C63.2864 1.77767 63.359 1.83647 63.321 1.89936C64.1306 1.61901 65.4424 1.71244 66.2486 1.62086C66.2011 1.62082 66.2137 1.68375 66.2137 1.68375C67.0957 1.64677 68.0156 1.73567 68.983 1.61486C69.3338 1.68229 68.8689 1.9923 69.7983 1.93858C69.767 1.62394 71.379 1.80992 70.8325 1.45708C71.6924 1.55358 72.5562 1.57536 73.4183 1.52226C73.0609 1.63941 73.8036 1.90433 73.1429 1.94151L73.6422 2.13071C73.5694 2.25649 73.1301 2.08832 73.288 2.24786C73.6199 2.24815 74.5842 2.11056 74.8687 2.16115C75.4821 1.97292 76.0483 1.61685 77.041 1.57997C76.573 1.70121 77.3093 1.91998 76.99 1.97424L78.3783 1.37978C78.6944 1.38006 78.4508 1.62734 78.9282 1.54386C78.903 1.46414 79.1117 1.40979 79.2445 1.34698C79.3678 1.38065 80.6197 1.26848 80.7649 1.57483C80.9102 1.69661 80.2242 1.64148 80.5908 1.74667C81.201 1.7472 81.2232 1.64235 81.8396 1.6387L81.8396 1.67645C82.2442 1.72295 83.0283 1.54745 82.589 1.37927C82.3077 1.37903 82.6964 1.56394 82.2728 1.47548C82.7944 1.2849 83.3355 1.20607 83.8758 1.24197C83.6703 1.29213 83.6955 1.37604 83.61 1.45987C84.4804 1.2508 85.3602 1.11844 86.2437 1.06366C86.2596 0.916854 85.902 1.32764 85.7662 1.25201C86.942 1.45439 88.1942 0.96469 89.1739 1.25499C89.0127 1.28002 89.0856 1.04517 89.0982 1.08713C89.6641 1.1086 89.6386 1.31832 90.0085 1.23894C90.0432 1.36482 90.4701 1.20159 90.8495 1.16417C91.0455 1.07206 90.9506 1.22299 90.6186 1.23948C91.9031 1.0435 93.1984 1.00532 94.488 1.12541C94.4628 1.04149 95.2407 0.824035 95.5188 0.832668L95.4112 1.02554C95.6672 1.14322 96.3596 1.02637 96.3974 1.17322C97.0014 0.943031 94.0864 1.37255 94.899 1.17191C95.1075 1.3315 96.0309 0.866675 95.8474 1.1266C96.4132 1.12709 96.9603 0.905242 97.5007 1.08609C97.3427 1.05659 97.0421 1.34997 97.5005 1.33778C98.3035 1.30493 97.7282 1.2457 98.3794 1.18334L98.7873 1.104C98.8159 0.91945 99.5049 1.12979 99.2079 0.919792C99.3058 1.07509 100.374 0.828526 100.292 1.13887L100.181 1.38208C100.474 1.31741 100.757 1.19463 101.022 1.01786C101.067 1.03887 101.158 1.08929 101.142 1.12703C101.196 0.753738 101.971 1.16132 102.382 0.872231C103.109 1.00291 104.231 0.873849 104.575 1.11745C105.137 0.962342 105.711 0.906424 106.283 0.951152C106.156 0.988795 105.982 0.997032 105.944 1.0767C106.232 1.14856 106.528 1.13305 106.811 1.03132C106.728 1.08578 107.613 1.25015 108.056 1.38058C108.612 1.272 108.423 1.07048 108.48 0.961463C108.985 1.33105 110.06 0.727935 110.692 1.05988C110.503 1.11425 109.883 1.23955 110.344 1.33644C110.853 1.70183 111.369 1.06467 112.191 1.24157L111.989 0.935169C112.352 1.12426 113.196 0.760042 113.111 1.07039C113.386 0.96156 114.078 1.17191 113.987 0.873994C115.333 1.12686 117.259 0.725842 118.096 1.25932C118.289 1.20915 118.772 1.25991 118.671 1.10881C118.355 0.94074 118.225 1.22588 118.105 1.10832C118.279 1.10847 118.317 1.02041 118.333 0.978474C118.754 1.04596 119.082 1.06722 118.687 1.31437C119.616 1.49976 119.636 0.807624 120.831 0.926126C120.777 1.05192 120.868 1.09815 121.216 1.07748L121.874 0.86831C122.639 0.915123 122.307 1.14974 122.325 1.3595C122.736 1.32211 123.236 1.33094 123.423 1.17589L123.919 1.4406C123.558 1.24732 124.257 1.31505 124.45 1.26488L124.257 1.31505C124.517 1.3742 124.784 1.37443 125.044 1.31574C124.987 1.18565 124.504 1.13069 124.241 1.09271C124.45 1.0006 124.776 1.02186 125.054 0.917236C124.962 1.1227 125.721 1.06044 126.046 1.0859C126.372 1.11135 126.467 0.901693 126.578 0.905985C126.578 1.01505 127.185 0.92749 126.894 1.07406C126.767 1.1075 126.603 0.973125 126.394 1.07362C126.637 1.15353 126.609 1.33808 127.121 1.20429C127.507 1.09976 127.023 0.784724 127.754 0.927988C127.624 0.977487 127.499 1.04633 127.38 1.13321L128.063 1.24287L128.092 1.05413C128.183 1.10035 128.12 1.11708 128.164 1.14228C128.367 0.945304 129.208 1.08447 129.363 0.862278C129.707 0.86258 130.087 0.992952 130.415 1.01421L130.352 1.01416C130.773 1.10272 131.204 1.07309 131.617 0.927172L131.598 0.969104C131.938 0.984555 132.279 0.942567 132.612 0.844146C133.169 0.983063 132.798 1.54904 133.412 1.31467C133.975 1.31516 134.297 0.971466 134.07 0.853811C135.081 0.980542 136.232 0.675324 137.171 0.965591C137.316 0.890211 137.225 0.843987 137.525 0.802301C139.011 0.874914 140.664 0.582721 141.846 0.948707C141.416 1.02803 141.818 1.13745 141.827 1.24233C142.181 1.07485 142.254 1.41889 142.38 1.12955C142.346 0.961729 142.381 0.877862 141.963 0.81038C142.872 0.705607 143.786 0.728905 144.691 0.879884C144.445 0.799966 144.635 0.749794 144.831 0.699627C144.764 0.968039 145.418 1.01056 145.915 0.914513L145.984 0.750974L146.3 0.919045C146.49 0.868873 146.509 0.57525 146.999 0.735083C147.013 0.776282 147.033 0.813248 147.058 0.843609C147.083 0.873971 147.112 0.897059 147.144 0.911394C147.657 0.777607 148.378 0.551715 148.934 0.690632L149.389 0.930137C149.626 0.90098 150.021 0.758701 149.607 0.691221C150.555 0.834676 151.166 0.851989 151.466 1.06199C153.1 0.572627 155.475 0.553729 157.371 0.593142L157.314 0.714744C157.823 0.832645 157.58 0.501038 157.947 0.589451C157.782 0.702568 158.335 0.841482 157.946 0.983767C158.673 1.11444 158.895 0.774854 159.36 0.716533C159.432 0.557192 158.977 0.82107 159.069 0.615602C159.151 0.556946 160.08 0.742332 160.194 0.499131C160.374 0.59577 160.232 0.776024 160.134 0.87242L160.58 0.755354C161.126 1.04108 159.337 1.26184 159.909 1.61471L160.32 1.57732C160.712 1.83355 159.235 1.86581 160.266 1.95481C160.712 1.83355 161.094 1.48151 160.696 1.3721C161.629 1.3058 161.13 0.789394 162.132 0.811245C162.404 0.954108 161.329 0.844101 161.522 1.04562C161.992 1.24319 162.47 0.937387 162.887 1.00487C162.423 0.912176 162.815 0.669218 163.118 0.62334C163.627 0.737046 162.802 0.85378 163.507 0.879566C163.627 0.737046 164.291 0.632756 163.716 0.535771C163.978 0.217192 164.468 0.624521 164.86 0.377367C165.094 0.599899 164.117 0.896879 164.91 1.01083C164.784 0.792591 165.887 0.713854 165.47 0.39468C165.786 0.45788 165.812 0.625696 165.587 0.759735C166.03 0.894358 166.662 0.36636 166.81 0.794364L166.962 0.57217C167.101 0.647799 167.3 0.702506 167.525 0.820158C167.917 0.820501 168.79 0.52343 168.751 0.85479C168.878 0.821342 169.769 0.85568 169.425 0.603688C168.869 0.464771 168.793 0.775123 168.477 0.460233C168.868 0.716462 169.28 0.427377 169.599 0.34376L169.653 0.473847C169.842 0.423674 170.285 0.449231 170.402 0.310904C170.256 0.386284 170.332 0.474441 170.484 0.503938L170.649 0.298534C171.426 0.202733 170.832 0.646868 171.597 0.588809L171.024 0.743518C171.269 0.803217 171.518 0.832923 171.767 0.83226C171.91 0.652006 172.172 0.438297 172.292 0.299972C172.719 0.220644 172.485 0.501494 172.902 0.300506L172.352 0.513962C172.27 0.576814 172.725 0.812123 173.3 0.808432C173.661 0.745824 174.227 0.486238 173.652 0.389253C173.939 0.389505 174.338 0.494725 174.113 0.628764C174.745 0.566395 174.028 0.435726 174.584 0.322952C174.812 0.444801 175.532 0.613226 175.953 0.789778L175.368 1.0871L175.756 1.08744C175.254 1.32611 176.009 1.27224 175.728 1.5069C176.009 1.52419 176.292 1.48627 176.565 1.39437C175.794 0.974213 177.435 0.841413 177.198 0.467864C178.258 0.368114 177.858 1.37034 178.962 0.792411C178.782 0.695772 179.304 0.415173 178.646 0.519469C179.304 0.561993 179.095 0.150715 179.87 0.302407C179.294 0.457113 180.502 0.680497 179.657 0.89789C179.711 0.776287 179.193 0.805198 179.066 0.842841C179.338 0.981509 179.009 1.21194 179.682 1.21253C180.093 1.17933 180.659 1.17143 180.577 0.978398C180.559 0.768639 179.945 1.00301 180.214 0.785116C181.033 0.71452 181.162 1.03764 181.51 0.660405C180.992 0.689315 180.878 0.471084 180.878 0.324264L181.479 0.236697L181.362 0.37922C182.329 0.480742 181.647 0.123583 182.585 0.162158L183.021 0.439399C182.8 0.678312 181.662 0.333339 181.826 0.723604C182.436 0.724138 182.639 0.539741 183.211 0.645113C183.081 0.678559 182.895 0.686785 182.784 0.720247C182.999 0.720435 183.217 1.25337 184.083 0.947906C184.532 0.830843 184.203 0.809581 184.213 0.66277C185.19 0.621676 185.478 0.470913 186.11 0.450491C185.98 0.735628 187.223 0.476634 186.527 0.769666C186.211 0.601595 184.798 0.617137 184.45 0.889499C184.807 1.2254 183.685 0.842686 183.473 1.18228C184.257 1.18297 184.219 1.52272 184.345 1.74096C184.533 1.73847 184.72 1.70194 184.901 1.63238C184.993 1.42692 184.709 1.43086 184.693 1.21272C185.431 1.28086 186.172 1.19516 186.89 0.958752C187.181 1.05968 187.089 1.26515 186.745 1.28163C187.785 1.22381 188.894 1.25414 189.88 1.31374C189.248 0.981789 190.984 1.23919 190.548 0.957757C190.02 0.881788 189.565 0.646478 189.856 0.495717C190.172 0.516968 189.856 0.642538 189.982 0.713961C190.406 0.529758 190.639 1.00818 191.051 0.714896C190.102 0.823132 190.867 1.13422 190.693 1.38576C191.376 1.23534 190.661 1.5703 191.325 1.57089C192.011 1.42467 192.849 1.31214 193.608 1.25407C194.556 1.50659 196.02 1.25618 196.87 1.25693C197.316 1.39155 197.015 1.67654 197.502 1.73989C198.071 1.74039 197.082 1.41652 197.922 1.55568L197.834 1.66467C198.09 1.59778 199.373 1.86737 199.623 1.43972L199.364 1.76249C199.509 1.76914 199.655 1.7423 199.794 1.68317C199.794 1.78804 199.983 1.88468 199.727 1.95158C200.245 2.17436 200.815 1.91897 201.377 1.91107L201.017 1.7178C201.981 1.57182 202.626 1.76115 203.546 1.69484L203.524 1.87939L204.077 1.77081C203.944 1.95107 204.453 2.06897 204.744 1.91821L203.302 2.37C202.901 2.26058 203.738 2.14805 203.489 1.95067C203.088 1.80233 202.662 1.82545 202.272 2.01673C202.475 2.03834 202.68 2.01008 202.876 1.93336C202.983 2.18934 202.483 2.18051 202.243 2.35229C202.417 2.35244 202.663 2.41978 202.701 2.35269C202.292 2.47745 201.872 2.52789 201.453 2.50261C201.835 2.40227 201.244 2.34303 201.39 2.26765C201.342 2.49832 200.801 2.56497 200.103 2.50143C199.604 2.23672 198.788 2.67227 197.978 2.59606C198.368 2.33408 198.788 2.16276 199.221 2.08957C198.712 1.97167 198.652 2.08907 198.143 1.97956C197.823 2.28492 197.448 2.4714 197.055 2.51974L197.021 2.34772C196.42 2.43529 196.42 2.68698 195.652 2.63597C194.34 2.55092 192.99 2.54974 191.988 2.52789L191.95 2.36006C191.393 2.72453 190.094 2.49268 189.342 2.65142C188.078 2.48672 186.569 2.8126 185.915 2.51838C183.664 2.64646 181.695 2.77477 179.362 2.70981L179.754 2.46266C179.334 2.64267 179.482 2.31979 179.071 2.35719C179.542 2.55476 178.502 2.61258 178.214 2.77592C177.115 2.65118 176.008 2.71506 174.92 2.966L174.882 2.79398C173.953 3.11198 172.84 2.82995 171.68 2.79118C171.469 2.64454 171.233 2.57213 170.994 2.58084C170.362 2.85295 170.046 2.83589 169.113 2.99868C168.437 2.99809 167.343 2.92582 166.66 2.82035C164.131 3.20406 161.536 2.95429 158.902 3.18271L158.709 2.98538C156.155 3.40263 153.019 3.01816 150.832 3.23437L151.044 2.89478C150.361 2.78931 149.485 2.9815 149.659 3.22496C148.973 3.11949 147.948 3.39126 147.516 3.10982C146.814 3.04629 146.656 3.26428 146.074 3.30991C144.994 3.19961 143.909 3.18744 142.827 3.27351L143.143 3.29477C143.289 3.21939 143.302 3.07258 142.973 3.05131C142.48 3.14317 141.158 2.95744 141.648 3.36477C140.238 3.12862 138.357 3.55485 136.982 3.23484C137.099 3.34821 136.755 3.36888 136.606 3.44426C135.37 3.44317 134.077 3.21972 133.078 3.40761C132.879 3.3529 133.394 3.21912 132.889 3.20609C132.588 3.24778 132.888 3.35291 132.512 3.4155C130.508 3.6193 128.45 3.19382 126.626 3.24676C123.379 3.46205 119.988 3.35001 116.89 3.38086L116.924 3.30119C115.884 3.6107 114.484 2.97605 113.652 3.44934C113.406 3.36942 112.704 3.41076 112.894 3.25152C112.065 3.47312 110.574 3.04394 109.375 3.31975C109.477 3.32563 109.578 3.31158 109.676 3.27807C108.468 3.09663 107.4 3.3432 106.123 3.17848C106.252 3.14084 106.486 3.11587 106.524 3.03621C106.031 2.87637 105.357 3.37916 105.086 2.98461C104.801 2.98436 104.883 3.18159 105.057 3.17335C102.26 3.01569 99.2754 3.26477 96.367 3.35452C94.2808 3.11359 96.238 2.68742 94.5939 2.97962C94.458 2.904 94.4958 3.13055 94.4737 3.05083C93.8414 3.15934 93.4815 2.63048 93.0387 2.81466C93.2219 3.05813 92.7478 2.94864 92.7224 3.09544C91.458 2.93913 91.1927 2.72076 90.1936 2.90446L90.2695 2.77449C89.0869 3.13421 87.7215 2.94005 86.7253 3.35447C80.2195 3.42429 73.9854 3.64955 67.6408 3.69434C61.3722 3.60915 55.233 3.78835 48.8665 3.56465C47.3747 3.22776 47.2641 3.23605 45.6265 3.36885C45.6898 3.31437 45.7941 3.30608 45.6835 3.25145C45.601 3.52824 44.5296 3.27561 44.3745 3.53975C42.0194 3.48735 39.8508 3.56096 37.4198 3.55883C37.8023 3.5298 37.9954 3.30764 37.5401 3.32402L37.0658 3.49979L36.9868 3.42422C36.6707 3.46169 36.3355 3.59983 36.6705 3.68822C30.585 3.9178 24.6013 3.36304 18.6519 3.42496C17.2357 3.30626 15.2219 3.42195 13.6855 3.46675C9.12741 3.09781 5.02128 2.79639 0.408868 3.03565C0.396222 3.03145 1.00065 2.32304 2.91015 2.16112Z" fill="#FF0000"/>
</svg>
