<svg width="256" height="4" viewBox="0 0 256 4" fill="none" xmlns="http://www.w3.org/2000/svg">
<path id="Vector" d="M252.081 2.16159C249.032 1.52244 245.022 2.16777 241.685 1.7512C241.29 1.72218 241.788 2.09928 240.896 2.01617C237.662 1.524 232.565 1.8263 228.629 2.21147L228.866 2.30775C228.116 2.38391 227.199 2.05332 226.406 2.10016C226.406 2.16727 226.659 2.19642 226.473 2.28467C226.276 2.08769 225.036 2.19364 224.7 2.04712C224.384 2.12709 224.416 2.28228 224.01 2.37072L223.555 2.1446C222.291 1.60876 220.484 2.18504 218.754 1.90969C218.841 1.95995 219.011 2.00175 218.873 2.05221C216.109 1.72743 212.634 1.7934 209.535 1.67446C209.657 1.75405 209.772 1.90077 209.59 1.98902C209.44 1.75424 208.481 1.69216 207.652 1.64674C207.257 1.89039 206.226 1.42566 205.251 1.56075L205.334 1.61521C204.615 1.35995 204.268 1.76296 203.684 1.45725L203.226 1.65061C202.91 1.30691 202.184 1.82771 201.591 1.65204L201.591 1.58073C201.03 1.49732 200.738 1.66957 200.217 1.6113L200.166 1.65329C198.95 1.56207 198.239 1.75565 198.271 1.48715C197.844 1.70146 199.455 1.5826 198.78 1.90619C194.773 1.63284 190.639 1.69099 186.604 1.69032C186.309 1.72126 186.022 1.80225 185.751 1.93018C185.119 1.91259 184.489 1.85149 183.864 1.74725C184.002 1.74713 183.607 1.88591 183.394 1.89868C182.656 2 182.604 1.60154 181.783 1.72391C182.107 1.79493 182.214 1.88293 182.107 1.9837C181.309 1.82698 180.499 1.74487 179.687 1.73832C179.813 1.78436 180.011 1.81355 179.979 1.89747C179.09 1.65914 178.356 1.94923 177.578 1.7989L177.871 1.95385C176.615 2.14372 177.499 1.63117 176.414 1.74119C176.674 1.7913 176.584 1.85011 176.631 1.91299C175.62 1.63282 173.982 1.72654 172.975 1.63513C173.034 1.63508 173.018 1.69801 173.018 1.69801C171.917 1.66123 170.768 1.75032 169.56 1.62973C169.121 1.69723 169.702 2.00714 168.541 1.95362C168.58 1.63897 166.567 1.82531 167.25 1.47235C166.176 1.56904 165.097 1.591 164.02 1.53809C164.466 1.65516 163.539 1.92025 164.364 1.95728L163.74 2.14659C163.831 2.27236 164.38 2.10408 164.183 2.26366C163.768 2.26402 162.564 2.12665 162.209 2.1773C161.442 1.9892 160.735 1.63325 159.496 1.59658C160.08 1.71772 159.16 1.93666 159.559 1.99085L157.825 1.39669C157.431 1.39704 157.735 1.64427 157.138 1.56089C157.17 1.48116 156.909 1.42686 156.743 1.36408C156.59 1.39777 155.026 1.28588 154.845 1.59226C154.663 1.71407 155.52 1.65879 155.062 1.76406C154.3 1.76473 154.272 1.65988 153.502 1.65636L153.502 1.69412C152.997 1.7407 152.018 1.56537 152.566 1.3971C152.918 1.39679 152.432 1.58179 152.961 1.49324C152.31 1.30277 151.634 1.22406 150.959 1.26008C151.216 1.31019 151.184 1.39411 151.291 1.47792C150.204 1.26904 149.105 1.13687 148.002 1.08228C147.982 0.935481 148.429 1.34619 148.598 1.27053C147.13 1.47317 145.566 0.983738 144.342 1.27425C144.544 1.29925 144.453 1.06441 144.437 1.10638C143.73 1.12797 143.762 1.33768 143.3 1.25839C143.257 1.38427 142.723 1.22114 142.25 1.1838C142.005 1.09173 142.123 1.24264 142.538 1.25905C140.934 1.06336 139.316 1.02546 137.705 1.14583C137.737 1.0619 136.765 0.844618 136.418 0.853312L136.552 1.04616C136.233 1.16389 135.368 1.04719 135.321 1.19405C134.566 0.963998 138.207 1.39288 137.192 1.19242C136.932 1.35205 135.778 0.887431 136.007 1.14731C135.301 1.14793 134.618 0.926199 133.943 1.10717C134.14 1.07763 134.515 1.37094 133.943 1.35886C132.94 1.32618 133.658 1.26682 132.845 1.20461L132.336 1.12535C132.3 0.940812 131.439 1.15131 131.81 0.94124C131.688 1.09656 130.353 0.850228 130.456 1.16056L130.595 1.40374C130.229 1.33914 129.875 1.21642 129.544 1.0397C129.489 1.06073 129.374 1.11117 129.394 1.1489C129.327 0.775619 128.36 1.18337 127.846 0.89437C126.938 1.0252 125.537 0.896391 125.107 1.14007C124.406 0.985081 123.689 0.929287 122.974 0.97414C123.132 1.01176 123.349 1.01995 123.397 1.09962C123.038 1.17154 122.668 1.15609 122.315 1.05442C122.418 1.10886 121.312 1.27343 120.76 1.40395C120.065 1.29549 120.302 1.09393 120.23 0.98493C119.599 1.35463 118.256 0.751746 117.467 1.08383C117.704 1.13816 118.478 1.26332 117.901 1.36031C117.266 1.72582 116.622 1.08876 115.595 1.26585L115.848 0.9594C115.394 1.14857 114.34 0.784536 114.446 1.09486C114.103 0.986096 113.238 1.1966 113.353 0.898661C111.671 1.15182 109.266 0.751221 108.22 1.28488C107.979 1.23475 107.375 1.28562 107.502 1.1345C107.896 0.966357 108.058 1.25147 108.208 1.13388C107.991 1.13407 107.944 1.04602 107.924 1.00409C107.399 1.07166 106.988 1.093 107.482 1.34006C106.321 1.52565 106.297 0.833521 104.805 0.952283C104.872 1.07807 104.758 1.12431 104.323 1.10372L103.502 0.894694C102.546 0.941673 102.961 1.17622 102.938 1.38599C102.424 1.34868 101.801 1.35762 101.568 1.20261L100.948 1.46743C101.398 1.27407 100.525 1.34195 100.284 1.29183L100.525 1.34195C100.2 1.40116 99.8676 1.40145 99.5422 1.34281C99.6132 1.21271 100.217 1.15765 100.545 1.11961C100.284 1.02755 99.8776 1.04888 99.53 0.944313C99.6447 1.14976 98.6971 1.08767 98.2905 1.11319C97.8838 1.13872 97.7652 0.929078 97.627 0.933394C97.6271 1.04246 96.869 0.955031 97.2323 1.10153C97.3903 1.13495 97.5955 1.00054 97.8561 1.10099C97.5522 1.18096 97.5879 1.3655 96.9482 1.23182C96.4664 1.12737 97.0702 0.812229 96.1583 0.955652C96.3204 1.00512 96.4768 1.07394 96.6244 1.16079L95.7716 1.2706L95.736 1.08187C95.6215 1.12811 95.7005 1.14482 95.6452 1.17004C95.3924 0.973102 94.3423 1.11245 94.1486 0.890293C93.7183 0.89067 93.2446 1.02112 92.834 1.04246L92.913 1.04239C92.3866 1.13104 91.8486 1.1015 91.3336 0.955679L91.3573 0.997606C90.9316 1.01313 90.5057 0.971217 90.0899 0.872869C89.3951 1.01191 89.8575 1.57781 89.0914 1.34357C88.3886 1.34418 87.9856 1.00056 88.2698 0.882852C87.0065 1.0098 85.569 0.704836 84.3967 0.995306C84.215 0.919958 84.3295 0.873715 83.9544 0.832094C82.0988 0.90503 80.0336 0.613198 78.5573 0.979441C79.0943 1.05867 78.593 1.16818 78.5813 1.27306C78.1389 1.10565 78.0484 1.44971 77.8902 1.1604C77.9335 0.992572 77.89 0.908713 78.4111 0.841139C77.2762 0.736565 76.1341 0.760062 75.0039 0.911238C75.3118 0.831266 75.0748 0.781135 74.83 0.731011C74.9132 0.999409 74.0959 1.04207 73.476 0.946133L73.389 0.782609L72.9943 0.95075C72.7574 0.900619 72.7334 0.607 72.1216 0.766939C72.1046 0.808142 72.0796 0.845111 72.0484 0.875478C72.0171 0.905845 71.9803 0.92894 71.9401 0.943282C71.3004 0.809606 70.4 0.583872 69.7053 0.72291L69.1369 0.962514C68.8408 0.933409 68.3472 0.791216 68.8643 0.723646C67.68 0.867307 66.918 0.884753 66.5431 1.09482C64.5015 0.605812 61.5364 0.587432 59.1675 0.627258L59.2387 0.748847C58.6031 0.866858 58.9068 0.535199 58.4489 0.623691C58.6543 0.736773 57.9635 0.875808 58.4493 1.01801C57.5413 1.14884 57.2646 0.809302 56.6842 0.751082C56.5932 0.591757 57.162 0.855535 57.0473 0.650087C56.9446 0.591449 55.784 0.777038 55.6417 0.533861C55.4167 0.630539 55.5945 0.810762 55.717 0.907137L55.1602 0.790168C54.4774 1.07602 56.7123 1.29639 55.998 1.64938L55.4847 1.61208C54.9953 1.86839 56.8392 1.90034 55.5521 1.98955C54.9953 1.86839 54.5173 1.51644 55.0147 1.40694C53.8499 1.34084 54.4733 0.824328 53.2217 0.846397C52.8823 0.989319 54.2246 0.879079 53.9839 1.08064C53.3958 1.27831 52.7994 0.972613 52.2783 1.04019C52.8586 0.947392 52.3688 0.704519 51.9897 0.658707C51.3542 0.772524 52.3847 0.889078 51.5043 0.915018C51.3542 0.772524 50.525 0.668378 51.2434 0.571268C50.9155 0.252746 50.3038 0.660182 49.8141 0.413114C49.5221 0.635697 50.7423 0.932463 49.7514 1.04659C49.9092 0.828321 48.5312 0.749824 49.0521 0.43056C48.6573 0.493828 48.6259 0.66165 48.9063 0.79564C48.3537 0.930359 47.5636 0.402499 47.3784 0.830536L47.1887 0.608374C47.015 0.684033 46.7664 0.738784 46.4861 0.856485C45.9966 0.856914 44.9066 0.560032 44.9543 0.891384C44.7963 0.857964 43.683 0.892496 44.1131 0.640429C44.8078 0.501391 44.9029 0.811727 45.2974 0.496767C44.8081 0.753082 44.2945 0.464086 43.8957 0.380538L43.8287 0.510637C43.5918 0.460506 43.039 0.486159 42.8928 0.347857C43.0745 0.423206 42.9798 0.51138 42.7904 0.540909L42.5849 0.335541C41.6135 0.23991 42.3562 0.683915 41.4007 0.626023L42.1154 0.780607C41.8094 0.84036 41.4988 0.87012 41.1877 0.869511C41.0099 0.689288 40.682 0.475636 40.5318 0.337338C39.9987 0.258102 40.2912 0.538901 39.7698 0.338004L40.457 0.551341C40.5597 0.614174 39.9914 0.849582 39.2728 0.846016C38.8226 0.783487 38.1157 0.524025 38.8342 0.426914C38.4749 0.427229 37.9775 0.532536 38.258 0.666526C37.4683 0.604294 38.3644 0.473469 37.6694 0.360816C37.3852 0.482715 36.4852 0.651297 35.9603 0.827941L36.6909 1.12514L36.2053 1.12556C36.8333 1.36412 35.8896 1.31041 36.2412 1.54501C35.8891 1.56236 35.5365 1.52451 35.1948 1.43267C36.1578 1.01234 34.1086 0.879898 34.4044 0.506297C33.0817 0.406778 33.58 1.40891 32.2016 0.831229C32.4265 0.734551 31.7748 0.454065 32.5962 0.558218C31.775 0.600885 32.0352 0.189562 31.068 0.341422C31.7867 0.496003 30.2787 0.71965 31.3331 0.93686C31.2659 0.815268 31.9134 0.844066 32.0713 0.881681C31.7319 1.02041 32.1427 1.25077 31.3018 1.2515C30.7885 1.21839 30.0817 1.21062 30.1842 1.01757C30.2077 0.807805 30.9739 1.04205 30.6381 0.824207C29.6155 0.753789 29.4539 1.07693 29.0192 0.699778C29.6668 0.728575 29.8087 0.510319 29.8086 0.363499L29.0583 0.276063L29.2046 0.41856C27.9965 0.520294 28.849 0.162985 27.6764 0.201765L27.1318 0.479102C27.4084 0.717966 28.8294 0.372745 28.6245 0.763046C27.8625 0.763713 27.6096 0.57936 26.8951 0.684857C27.057 0.718274 27.29 0.72646 27.4282 0.759898C27.1597 0.760133 26.8877 1.29312 25.8057 0.98784C25.2449 0.870874 25.6555 0.849541 25.6435 0.702731C24.4235 0.66185 24.0641 0.51115 23.2744 0.490866C23.4366 0.775974 21.8847 0.517252 22.7536 0.810131C23.1482 0.641992 24.9131 0.657226 25.3476 0.929512C24.9018 1.26549 26.303 0.882533 26.5679 1.22208C25.5887 1.22294 25.6364 1.56268 25.4787 1.78095C25.2434 1.7785 25.0096 1.74201 24.7837 1.67249C24.669 1.46705 25.0243 1.47093 25.0439 1.25278C24.1223 1.32108 23.1964 1.23555 22.2997 0.999297C21.9365 1.10029 22.0512 1.30574 22.4816 1.32214C21.1826 1.26455 19.7968 1.29513 18.565 1.35493C19.3544 1.02285 17.187 1.28063 17.7316 0.999099C18.3909 0.923014 18.9593 0.687605 18.5959 0.536908C18.2011 0.558228 18.596 0.683728 18.4382 0.755179C17.9089 0.571068 17.6172 1.04954 17.1037 0.756346C18.2882 0.864376 17.333 1.17563 17.5504 1.42713C16.6975 1.27686 17.59 1.61167 16.7609 1.6124C15.904 1.46633 14.8577 1.35398 13.9101 1.29608C12.7258 1.54881 10.8976 1.29872 9.83554 1.29965C9.27897 1.43437 9.65429 1.71929 9.04633 1.78274C8.33566 1.78337 9.57115 1.45928 8.52106 1.59863L8.6317 1.7076C8.31184 1.64076 6.70912 1.91064 6.39684 1.48303L6.72087 1.80575C6.53891 1.81243 6.35722 1.78562 6.18385 1.72652C6.18394 1.83139 5.94713 1.92808 6.26699 1.99492C5.61969 2.21781 4.90879 1.96255 4.20601 1.95477L4.65593 1.76142C3.45161 1.61565 2.64635 1.80512 1.49737 1.73901L1.52517 1.92356L0.834139 1.8151C1.00012 1.99533 0.364566 2.11334 0.00120108 1.96265L1.80197 2.41412C2.30329 2.30461 1.25692 2.19227 1.56866 1.99484C2.06925 1.84641 2.60116 1.86943 3.08877 2.06062C2.8347 2.08228 2.57905 2.05407 2.33459 1.97739C2.20058 2.23339 2.82438 2.22445 3.12459 2.39618C2.90744 2.39637 2.59954 2.46376 2.55211 2.39668C3.06323 2.52135 3.58791 2.57169 4.11177 2.54633C3.63395 2.44607 4.37221 2.3867 4.19053 2.31135C4.24995 2.54202 4.92515 2.60854 5.79764 2.54486C6.42122 2.28003 7.44024 2.71541 8.4509 2.63902C7.96462 2.37712 7.43964 2.20589 6.89882 2.1328C7.53438 2.01478 7.6095 2.13217 8.24506 2.02255C8.64463 2.32784 9.11367 2.51425 9.6037 2.5625L9.64698 2.39047C10.3972 2.47791 10.3974 2.7296 11.3568 2.67842C12.9952 2.59309 14.6811 2.59162 15.9326 2.56955L15.9799 2.40171C16.6751 2.76606 18.2976 2.53392 19.2374 2.6925C20.8165 2.52752 22.7001 2.85307 23.5171 2.55872C26.3283 2.6863 28.7881 2.81419 31.7018 2.74871L31.2121 2.50165C31.7373 2.68157 31.5515 2.35872 32.0648 2.39603C31.4767 2.5937 32.7757 2.65129 33.1351 2.81458C34.5084 2.68959 35.8912 2.75324 37.2493 3.00394L37.2965 2.83191C38.4575 3.1497 39.847 2.86743 41.296 2.82841C41.5599 2.68172 41.8548 2.60926 42.1526 2.61792C42.9424 2.88989 43.3372 2.87277 44.5021 3.03535C45.347 3.03461 46.713 2.9621 47.5657 2.85649C50.7246 3.23965 53.9659 2.98932 57.2549 3.21716L57.4956 3.01979C60.686 3.43648 64.6023 3.05132 67.3346 3.26707L67.0698 2.92751C67.9225 2.8219 69.0163 3.0139 68.7994 3.25739C69.6561 3.15177 70.9355 3.42332 71.4762 3.14179C72.3526 3.0781 72.5502 3.29606 73.2767 3.34157C74.6259 3.23103 75.9807 3.21863 77.3315 3.30446L76.9367 3.32578C76.755 3.25043 76.7391 3.10363 77.1497 3.08229C77.7657 3.17404 79.4158 2.98803 78.8042 3.39546C80.5649 3.15901 82.9144 3.58483 84.6316 3.26452C84.4856 3.37791 84.916 3.3985 85.1016 3.47385C86.6454 3.4725 88.26 3.24876 89.5078 3.43643C89.7565 3.38168 89.1128 3.24801 89.7445 3.23487C90.1196 3.2765 89.7446 3.38169 90.2145 3.44421C92.7178 3.64756 95.2877 3.22164 97.5659 3.27418C101.621 3.48876 105.857 3.37599 109.726 3.40616L109.683 3.3265C110.982 3.63578 112.731 3.00083 113.769 3.47394C114.077 3.39396 114.954 3.43515 114.717 3.27595C115.751 3.49737 117.615 3.06787 119.111 3.34342C118.985 3.34931 118.858 3.33529 118.736 3.3018C120.244 3.1201 121.579 3.36643 123.174 3.20143C123.012 3.16382 122.72 3.13891 122.672 3.05925C123.288 2.8993 124.129 3.40195 124.469 3.00734C124.824 3.00703 124.721 3.20427 124.504 3.19607C127.998 3.03781 131.726 3.28624 135.358 3.37535C137.964 3.13396 135.519 2.70822 137.573 3.00007C137.742 2.92441 137.695 3.15097 137.723 3.07125C138.512 3.17962 138.962 2.65068 139.515 2.83477C139.286 3.07827 139.878 2.96869 139.91 3.11548C141.489 2.95889 141.821 2.74046 143.068 2.92395L142.974 2.79399C144.45 3.15345 146.156 2.959 147.4 3.3732C155.525 3.4416 163.311 3.6655 171.235 3.70891C179.065 3.62236 186.732 3.80022 194.684 3.57513C196.547 3.23792 196.685 3.24618 198.73 3.37863C198.651 3.32417 198.521 3.31589 198.659 3.26124C198.762 3.53801 200.1 3.28514 200.294 3.54925C203.235 3.49634 205.944 3.56948 208.98 3.56682C208.502 3.53788 208.261 3.31576 208.83 3.33204L209.422 3.50771L209.521 3.43211C209.916 3.46952 210.334 3.60758 209.916 3.69604C217.516 3.92431 224.99 3.36824 232.42 3.42886C234.189 3.30985 236.704 3.42511 238.623 3.46957C244.316 3.09964 249.444 2.79732 255.205 3.03558C255.221 3.03137 254.466 2.3231 252.081 2.16159Z" fill="#FF0000"/>
</svg>
